<svg width="32" height="30" viewBox="0 0 32 30" fill="none" xmlns="http://www.w3.org/2000/svg">
<path fill-rule="evenodd" clip-rule="evenodd" d="M26.966 14.2122L31.4523 12.102L27.0093 14.5677L26.966 14.2122ZM26.706 14.0572C26.5372 13.8886 26.1403 13.8863 25.5906 14.121C25.2531 14.3489 24.8904 14.4264 24.5916 14.9163C24.781 14.8183 24.952 14.6679 25.1413 14.5699C25.0479 14.6991 24.9855 14.8481 24.9589 15.0052C25.1504 14.9551 25.5382 15.0052 25.8233 14.8708C26.1213 14.7322 26.3941 14.545 26.6307 14.317C26.6651 14.2842 26.6902 14.2429 26.7034 14.1973C26.7166 14.1516 26.7175 14.1033 26.706 14.0572ZM13.1762 19.3258C13.3336 19.695 13.7624 20.2374 14.4831 20.8435C14.4945 20.855 14.5009 20.8706 14.5009 20.8868C14.5009 20.903 14.4945 20.9186 14.4831 20.9301C14.4776 20.936 14.4709 20.9408 14.4634 20.944C14.456 20.9472 14.4479 20.9489 14.4398 20.9489C14.4317 20.9489 14.4236 20.9472 14.4162 20.944C14.4087 20.9408 14.402 20.936 14.3964 20.9301C13.6666 20.3285 13.2287 19.7588 13.0599 19.3691C13.0074 19.2438 12.8751 19.1207 12.8774 19.0341C12.8797 18.9475 13.028 18.8769 13.1055 18.8382C13.2743 18.7584 12.2137 18.248 12.5193 17.8514C12.6174 17.7376 12.7329 17.6399 12.8615 17.562H12.8797C12.898 17.562 12.9002 17.537 12.8911 17.5256C12.7223 17.2726 12.1613 17.1131 12.0746 16.9536C11.8169 16.589 12.3962 16.573 12.3186 16.4978C12.1544 16.3383 11.55 16.3178 10.218 15.6866C9.52044 15.3162 8.84976 14.8974 8.2109 14.4332C8.19724 14.4239 8.18771 14.4097 8.18431 14.3936C8.18091 14.3775 8.1839 14.3606 8.19265 14.3466C8.19723 14.3398 8.20312 14.334 8.20999 14.3295C8.21686 14.325 8.22455 14.3219 8.23263 14.3204C8.2407 14.3189 8.24899 14.3191 8.25701 14.3208C8.26503 14.3226 8.27262 14.3259 8.27933 14.3307C8.91393 14.7459 9.577 15.116 10.2636 15.4382C10.9752 15.7754 11.753 16.0922 12.6311 16.4203C12.6972 16.4454 12.7109 16.4842 12.6927 16.5366C12.6744 16.589 12.6083 16.6277 12.5353 16.6756C12.4623 16.7234 12.346 16.8032 12.3574 16.8283C12.4844 16.9722 12.6397 17.0885 12.8136 17.1701C12.969 17.2384 13.11 17.3358 13.2287 17.4572C13.2426 17.4729 13.2527 17.4918 13.2579 17.5121C13.2631 17.5325 13.2634 17.5538 13.2587 17.5743C13.254 17.5948 13.2445 17.6139 13.2309 17.63C13.2174 17.6461 13.2002 17.6587 13.1808 17.6669H13.1648C13.0494 17.7354 12.9442 17.8198 12.8523 17.9175C12.7132 18.0975 12.7588 18.3551 13.3815 18.829C13.3874 18.8346 13.3922 18.8413 13.3954 18.8487C13.3986 18.8562 13.4003 18.8642 13.4003 18.8723C13.4003 18.8805 13.3986 18.8885 13.3954 18.896C13.3922 18.9034 13.3874 18.9101 13.3815 18.9156C13.3742 18.9253 13.3643 18.9326 13.353 18.9366C13.3416 18.9407 13.3293 18.9413 13.3176 18.9384C13.2659 18.9205 13.2097 18.9205 13.158 18.9384C13.1406 18.9489 13.1266 18.9641 13.1177 18.9823C13.1088 19.0005 13.1053 19.0209 13.1078 19.041C13.1092 19.133 13.1319 19.2234 13.1739 19.3053L13.1762 19.3258ZM6.98383 18.7014C5.37679 17.9069 3.86552 16.9321 2.47924 15.7959L1.81096 14.8502L2.6503 15.2217C2.6609 15.2304 2.6742 15.2351 2.68793 15.2351C2.70166 15.2351 2.71496 15.2304 2.72556 15.2217C2.73698 15.2102 2.74339 15.1946 2.74339 15.1784C2.74339 15.1622 2.73698 15.1466 2.72556 15.1351L1.88166 14.3352H1.86798C1.5147 14.1511 1.21588 13.8777 1.00127 13.5422C0.968138 13.4869 0.949323 13.4243 0.946534 13.3599C0.945559 13.3442 0.949126 13.3285 0.956809 13.3148C0.964493 13.3011 0.975969 13.2898 0.98987 13.2824C1.08525 13.25 1.18871 13.25 1.28409 13.2824C1.29635 13.2859 1.3094 13.2853 1.32132 13.2808C1.33323 13.2763 1.34337 13.2681 1.35024 13.2574C1.35487 13.2505 1.35808 13.2428 1.35967 13.2347C1.36126 13.2266 1.3612 13.2183 1.3595 13.2102C1.3578 13.2021 1.35449 13.1945 1.34976 13.1877C1.34503 13.1809 1.33899 13.1751 1.33199 13.1708C1.06042 13.0164 0.814254 12.8212 0.602133 12.5919C0.53827 12.4894 0.654591 12.421 1.11759 12.4256C1.13098 12.4296 1.14527 12.4296 1.15865 12.4256C1.17192 12.4229 1.18402 12.4162 1.19318 12.4062C1.20234 12.3962 1.2081 12.3836 1.20962 12.3702C1.21114 12.3568 1.20835 12.3432 1.20165 12.3314C1.19495 12.3197 1.18468 12.3104 1.17233 12.3048C0.854962 11.8582 0.58296 11.3811 0.360367 10.8806C0.190307 10.4953 0.0692406 10.0904 0 9.67506C0.160925 9.86018 0.33388 10.0345 0.517743 10.1969C0.771029 10.4229 1.04347 10.6265 1.33199 10.8054C1.3417 10.811 1.35271 10.8139 1.36392 10.8139C1.37513 10.8139 1.38614 10.811 1.39585 10.8054C1.41046 10.7976 1.42162 10.7846 1.42711 10.769C1.4326 10.7533 1.43202 10.7362 1.4255 10.721L0.426511 8.6701L1.56691 9.31273C1.57938 9.31878 1.59347 9.32062 1.60707 9.31797C1.62067 9.31532 1.63304 9.30832 1.64231 9.29803C1.65157 9.28774 1.65724 9.27472 1.65845 9.26092C1.65967 9.24713 1.65636 9.23332 1.64902 9.22158C1.33772 8.8077 1.0666 8.36513 0.839337 7.89986C0.657599 7.52956 0.519081 7.1396 0.426511 6.73767C0.79372 7.1 1.81324 8.34423 2.40169 9.06434C2.60468 9.31045 2.75749 9.49731 2.81908 9.56796C2.82462 9.57389 2.83133 9.57862 2.83879 9.58186C2.84624 9.58509 2.85428 9.58676 2.86241 9.58676C2.87054 9.58676 2.87858 9.58509 2.88603 9.58186C2.89349 9.57862 2.9002 9.57389 2.90575 9.56796C2.91717 9.55643 2.92357 9.54087 2.92357 9.52466C2.92357 9.50844 2.91717 9.49288 2.90575 9.48136L2.49292 8.98002C1.87026 8.22118 0.773193 6.88124 0.440196 6.57587C0.530259 6.58378 0.615591 6.61964 0.684242 6.67842C1.48252 7.29142 2.23063 8.20295 2.96505 8.94584L3.16348 9.22386C4.09961 10.5169 5.19031 11.6908 6.41135 12.7196C6.72382 12.9793 7.12752 13.271 7.47192 13.5217C7.86018 13.8141 8.26786 14.0798 8.69215 14.317C9.83255 15.0189 11.1258 15.4769 12.5695 15.9122C12.8455 15.9988 13.126 16.0785 13.4111 16.156C13.6962 16.2335 13.9768 16.3064 14.2619 16.3839C14.2698 16.3863 14.2782 16.387 14.2864 16.3859C14.2946 16.3849 14.3026 16.3821 14.3096 16.3778C14.3167 16.3735 14.3229 16.3678 14.3276 16.361C14.3323 16.3542 14.3356 16.3464 14.3371 16.3383C14.3392 16.3304 14.3396 16.3221 14.3384 16.314C14.3372 16.3059 14.3344 16.2981 14.3302 16.2911C14.3259 16.2841 14.3203 16.278 14.3137 16.2732C14.307 16.2684 14.2995 16.265 14.2915 16.2631C14.0064 16.1947 13.7236 16.1218 13.4431 16.0352C13.1625 15.9486 12.8843 15.878 12.606 15.7914C11.2335 15.3918 9.91523 14.8254 8.68075 14.1051C8.30213 13.8772 7.94177 13.6334 7.59965 13.3872C7.25752 13.1411 6.92681 12.8813 6.61434 12.6238C5.53928 11.7231 4.56363 10.7101 3.70403 9.60214C3.78973 9.6854 3.88202 9.76161 3.98001 9.83002C4.25724 9.99102 4.51252 10.1871 4.73951 10.4134C4.85812 10.5319 5.00181 10.6253 5.12725 10.7461C5.72915 11.3397 6.37077 11.8917 7.04769 12.3982C7.81517 12.9607 8.66027 13.409 9.55658 13.7291C10.9251 14.2167 12.1658 14.6224 13.2469 14.9733C15.2996 15.6387 16.5792 16.1697 16.9669 16.6049C17.8669 18.4785 18.9045 20.2829 20.0711 22.0034C21.0199 23.3251 21.9915 24.1637 22.6826 24.1797C23.8846 24.4076 24.5711 23.8743 24.9269 23.3958C24.9634 23.3457 24.9976 23.2955 25.0273 23.2454C24.8996 23.9837 24.9292 24.5284 25.0843 24.8406C25.1178 24.9137 25.1632 24.9807 25.2189 25.0388C25.2536 25.075 25.2936 25.1057 25.3375 25.13C25.1961 25.4148 25.2873 25.8751 25.5245 26.3628C25.5724 26.4631 25.6271 26.5633 25.6864 26.6659C25.7457 26.7684 25.8028 26.8527 25.8666 26.9462C25.6563 27.3672 25.3892 27.7574 25.0729 28.1061C24.7507 28.4575 24.3381 28.7137 23.88 28.8467L20.9469 29.3526C20.0346 29.2683 19.9548 28.5938 20.0346 27.8099C20.0506 27.623 20.0779 27.427 20.103 27.231C20.1281 27.0351 20.1578 26.8117 20.176 26.6135C20.1765 26.6019 20.174 26.5904 20.1688 26.58C20.1637 26.5697 20.1559 26.5608 20.1464 26.5542C20.1321 26.5457 20.115 26.5431 20.0989 26.5469C20.0827 26.5507 20.0686 26.5607 20.0597 26.5747C19.9821 26.6978 19.9 26.757 19.8111 26.7502H19.7951C19.4598 26.814 19.2432 26.5223 18.933 26.5474C18.8166 26.5474 18.6593 26.8733 18.5179 26.8778L18.6137 26.4403C18.3856 26.4403 17.7903 26.8596 17.5668 26.896C17.471 26.912 18.2054 26.0574 18.1438 26.0438C18.0822 26.0301 17.2315 26.7958 17.1859 26.7935C17.0308 26.7935 17.081 26.7753 16.9578 26.7479C16.9578 26.7479 17.0399 26.6226 16.9578 26.5451C16.8757 26.4676 16.6408 26.6522 16.5016 26.6613L16.4537 26.6408H16.4378H16.4218C16.41 26.6108 16.41 26.5774 16.4218 26.5474C16.456 26.4175 16.878 26.1418 16.6499 26.1919C16.5883 26.2056 16.4971 26.2557 16.4446 26.2603C16.2644 26.2808 16.0341 26.4881 15.8539 26.4881C15.6679 26.4544 15.4843 26.4088 15.3042 26.3514C15.3247 26.3172 15.3407 26.2762 15.3772 26.2739C15.4576 26.2283 15.5294 26.1689 15.5893 26.0985C15.8174 25.8296 15.4023 26.0529 15.2289 26.0529C15.0217 26.0357 14.8245 25.9562 14.6633 25.825C14.6382 25.7885 14.6154 25.7225 14.5858 25.67C14.5888 25.6577 14.5926 25.6455 14.5972 25.6336C15.0379 25.3861 15.4952 25.1691 15.9656 24.9841C16.1458 24.9135 17.5143 24.5808 17.5394 24.5284C17.5423 24.5207 17.5437 24.5126 17.5434 24.5044C17.5431 24.4963 17.5413 24.4883 17.5379 24.4808C17.5345 24.4734 17.5296 24.4667 17.5236 24.4612C17.5176 24.4557 17.5106 24.4514 17.5029 24.4486C17.3015 24.371 17.0959 24.3048 16.8871 24.2503C16.8848 24.2338 16.8761 24.2188 16.8629 24.2086C16.8497 24.1983 16.833 24.1937 16.8164 24.1957L16.7183 24.2093C16.5267 24.1615 16.3283 24.1159 16.1253 24.0703C14.9302 23.7991 13.5183 23.4163 12.6037 22.5686C12.5345 22.5107 12.4779 22.4394 12.4372 22.3589C12.4372 22.3293 12.4372 22.3088 12.4555 22.2974C12.5948 22.2651 12.7401 22.269 12.8774 22.3088C12.8919 22.3119 12.907 22.3097 12.92 22.3026C12.933 22.2955 12.943 22.2839 12.9481 22.2701C12.9533 22.2543 12.9521 22.2372 12.9449 22.2223C12.9376 22.2075 12.9249 22.196 12.9094 22.1903C12.159 21.9237 11.9788 21.7004 12.3734 21.5203C12.3826 21.5167 12.3908 21.5109 12.3971 21.5033C12.4035 21.4958 12.4079 21.4867 12.4099 21.477C12.4119 21.4691 12.4123 21.4608 12.4111 21.4527C12.4099 21.4446 12.4071 21.4369 12.4029 21.4298C12.3986 21.4228 12.393 21.4168 12.3864 21.4119C12.3798 21.4071 12.3722 21.4037 12.3642 21.4018C11.4823 21.1967 11.2938 20.9385 11.7986 20.627L11.8191 20.6088C11.8238 20.602 11.827 20.5943 11.8286 20.5862C11.8302 20.5781 11.8301 20.5697 11.8284 20.5616C11.8267 20.5536 11.8234 20.5459 11.8187 20.5391C11.8139 20.5324 11.8079 20.5266 11.8009 20.5222C11.7196 20.477 11.6519 20.4109 11.6047 20.3308C11.5933 20.3056 11.5903 20.2774 11.596 20.2504C11.6018 20.2233 11.616 20.1988 11.6367 20.1804C11.6465 20.1698 11.6522 20.1561 11.6526 20.1416C11.6536 20.1337 11.6529 20.1256 11.6506 20.1179C11.6484 20.1102 11.6446 20.1031 11.6394 20.0969C11.6343 20.0907 11.628 20.0856 11.6209 20.082C11.6137 20.0783 11.6059 20.0761 11.5979 20.0756C9.9899 19.9066 8.42503 19.452 6.97698 18.7333L6.98383 18.7014ZM20.9036 11.154C20.5341 9.41528 20.2444 7.82694 20.3493 6.14062C20.4543 4.4543 20.9492 2.69278 22.158 0.598549C22.2787 0.416597 22.3631 0.213106 22.4066 -0.000779122C22.4066 -0.0668647 22.2994 -0.0577494 22.0235 0.0903734C21.6409 0.285382 21.2852 0.528953 20.9652 0.815036C20.6624 1.09236 20.404 1.41437 20.1988 1.76986L20.0209 2.07978L20.0711 1.72884C20.1127 1.57058 20.1236 1.4058 20.103 1.24345C20.0893 1.20243 20.03 1.2275 19.8886 1.35967L18.2738 3.61114L17.5166 4.57052C16.9597 5.34778 16.5713 6.23258 16.3762 7.16837C16.1902 8.10165 16.154 9.05856 16.269 10.0032L16.31 10.3792L16.1504 10.0374C15.8676 9.42667 15.6418 9.03016 15.5095 8.96635C15.4251 8.92761 15.3977 9.19423 15.4525 9.84597C15.5272 10.6085 15.6996 11.3583 15.9656 12.0769C16.0592 12.3686 16.1504 12.6626 16.2348 12.9634L16.2576 13.0409H16.1778C16.1435 13.0409 16.1299 13.0659 16.1299 13.1047C16.1299 13.2984 16.3785 13.7245 16.6157 14.1415C16.7705 14.3993 16.9092 14.6664 17.0308 14.9414L17.0855 15.0781L16.9509 15.0234C16.6134 14.8844 16.472 14.8708 16.4469 14.93C16.4013 15.0417 16.5997 15.363 16.7959 15.6843C16.9412 15.8972 17.0607 16.1267 17.1517 16.3679L17.0901 16.3839H17.0513C17.097 16.4199 17.1397 16.4596 17.179 16.5024C18.714 19.556 20.1213 21.926 21.2845 23.1109C21.2252 23.0129 21.1339 22.8261 21.0564 22.6552C20.9971 22.5321 20.9446 22.4273 20.9264 22.3908C20.6403 21.846 20.4374 21.2615 20.3243 20.6567C20.2369 20.25 20.1203 19.8502 19.9753 19.4603C19.9572 19.3639 19.9601 19.2648 19.9837 19.1697C20.0073 19.0745 20.0511 18.9856 20.1121 18.9088C20.1304 18.8815 20.1441 18.8564 20.1532 18.8404C20.0506 18.8063 19.9571 18.6445 19.8977 18.5191C19.8841 18.4941 19.8727 18.469 19.8635 18.4485C19.8544 18.428 19.8499 18.4097 19.843 18.3961C19.8248 18.3482 19.8567 18.3186 19.9023 18.2799C19.9339 18.2574 19.9603 18.2285 19.98 18.1951C19.9996 18.1618 20.012 18.1246 20.0164 18.0862C20.0155 17.9063 19.9925 17.7272 19.9479 17.5529C19.925 17.4767 19.912 17.3978 19.9092 17.3182H19.9525H19.9958C20.0005 17.3952 20.0127 17.4715 20.0323 17.5461C20.0768 17.7289 20.1005 17.9162 20.103 18.1044C20.098 18.1545 20.0824 18.2029 20.0572 18.2465C20.0321 18.2901 19.9979 18.3279 19.9571 18.3573C19.9388 18.3733 19.9206 18.3687 19.9228 18.3756L19.9434 18.4234L19.973 18.4918C20.03 18.6103 20.119 18.7675 20.1874 18.7675C20.2558 18.7675 20.249 18.788 20.249 18.8268C20.2381 18.8765 20.2163 18.9232 20.1851 18.9635C20.1099 19.0888 19.9935 19.2825 20.0528 19.4375C20.2261 19.8008 20.3725 20.1763 20.4908 20.5609C20.7188 21.518 20.8945 22.4205 21.5696 23.2226C21.8935 23.6077 22.1284 23.9427 22.71 23.9655C22.6368 23.9037 22.573 23.8315 22.5207 23.7513C22.4217 23.594 22.3449 23.4237 22.2926 23.2454C21.9528 22.2131 21.9619 20.2419 23.0247 17.4914C23.1497 17.2796 23.2195 17.0398 23.2277 16.7941C23.2389 16.4973 23.2082 16.2004 23.1365 15.9122C22.9905 15.2673 22.6256 14.6224 22.2105 13.8863C21.6885 13.0209 21.256 12.1046 20.9196 11.1517L20.9036 11.154Z" fill="white"/>
</svg>
