<svg width="220" height="67" viewBox="0 0 220 67" fill="none" xmlns="http://www.w3.org/2000/svg">
<g filter="url(#filter0_d)">
<path fill-rule="evenodd" clip-rule="evenodd" d="M43.4386 21.1503L50 18.061L43.502 21.6708L43.4386 21.1503ZM43.0583 20.9235C42.8115 20.6766 42.231 20.6732 41.4271 21.0169C40.9334 21.3505 40.403 21.4639 39.9661 22.1812C40.2429 22.0377 40.4931 21.8175 40.77 21.6741C40.6333 21.8632 40.542 22.0812 40.5031 22.3113C40.7833 22.2379 41.3504 22.3113 41.7674 22.1145C42.2032 21.9116 42.6023 21.6376 42.9482 21.3038C42.9985 21.2558 43.0352 21.1953 43.0546 21.1285C43.0739 21.0617 43.0752 20.9909 43.0583 20.9235V20.9235ZM32.7775 41.1406C32.4947 41.5366 32.1654 41.8972 31.7968 42.2149C31.6689 42.5007 31.5575 42.7937 31.4632 43.0923C31.3986 43.3106 31.3518 43.5337 31.3231 43.7595L31.3865 43.6661C31.488 43.52 31.6276 43.4046 31.7901 43.3325C31.8435 43.3325 31.9703 43.1924 31.9836 43.2257C31.997 43.2591 31.7768 43.5594 31.7301 43.7228C31.7222 43.7461 31.7054 43.7652 31.6834 43.7762C31.6534 43.8096 31.6834 43.8396 31.7334 43.8363L32.2538 43.7428C32.532 43.7159 32.8126 43.7272 33.0877 43.7762C33.1096 43.7792 33.1297 43.7898 33.1445 43.8062L33.1745 43.7829C33.1903 43.7724 33.2089 43.7668 33.2278 43.7668C33.2468 43.7668 33.2654 43.7724 33.2812 43.7829L33.6148 43.6094C33.6648 43.5827 33.8316 43.5393 33.855 43.566C33.8783 43.5927 33.7649 43.7562 33.7749 43.7996L34.4421 43.526C33.1078 43.3225 32.9843 42.2849 33.1078 41.0873C33.1278 40.8571 33.1578 40.6235 33.1878 40.39C33.0781 40.6665 32.9371 40.9295 32.7675 41.174L32.7775 41.1406ZM31.3532 44.0931C31.3624 44.0696 31.3624 44.0433 31.3532 44.0197C31.4032 43.9597 31.4599 43.8763 31.5166 43.7929C31.4766 43.9497 31.4666 44.0698 31.5933 44.0431L32.2872 43.8963C32.4293 43.8865 32.572 43.8865 32.7141 43.8963L32.911 43.913C32.8771 43.944 32.8538 43.9848 32.8442 44.0298V44.0298C31.7768 44.8671 30.706 45.6978 29.4218 46.1983L29.0315 46.3217L28.9447 46.2984C29.4444 45.9832 29.9154 45.6249 30.3524 45.2274C30.7267 44.8873 31.0624 44.5069 31.3532 44.0931ZM24.8685 36.5701C26.0507 36.2871 27.2479 36.0711 28.4544 35.9229C28.7279 35.9929 28.9881 36.063 29.2316 36.1464C28.5718 36.2816 27.9245 36.4724 27.2969 36.7169C26.5919 36.9989 25.9075 37.33 25.2487 37.7077C25.0152 37.8378 25.212 38.2882 25.3188 38.4283C25.5286 38.6708 25.7778 38.876 26.056 39.0355C26.4429 39.2824 27.5237 39.4158 27.9941 39.5359C28.1544 39.6047 28.3208 39.6583 28.4911 39.6961C28.6807 39.739 28.8739 39.7647 29.0682 39.7728C29.0933 39.8154 29.1276 39.8518 29.1686 39.8795C29.2095 39.9072 29.2561 39.9255 29.305 39.9329C29.4395 39.9576 29.5774 39.9576 29.712 39.9329H30.8028C31.5312 39.9232 32.2576 39.8529 32.9743 39.7228C33.0959 39.7289 33.2153 39.6883 33.3079 39.6093V39.6794C33.1631 40.1734 32.9377 40.6401 32.6408 41.0606C32.1833 41.6902 31.6187 42.2345 30.9729 42.6686L29.8954 43.516C29.6592 43.6211 29.4119 43.6994 29.1582 43.7495C29.0028 43.7819 28.8458 43.8064 28.6879 43.8229L29.1949 43.2991L30.6226 41.8713C30.6376 41.8542 30.6459 41.8323 30.6459 41.8095C30.6459 41.7868 30.6376 41.7649 30.6226 41.7478C30.6052 41.7309 30.5819 41.7214 30.5576 41.7214C30.5333 41.7214 30.51 41.7309 30.4925 41.7478C30.3324 41.8813 30.159 42.0147 29.9955 42.1381C29.8354 42.2623 29.6659 42.3739 29.4885 42.4718C29.1149 42.6286 28.7413 42.8054 28.3677 43.0089L27.9974 43.1991L28.2743 42.9689C28.3376 42.9188 29.2983 42.3283 29.2983 42.3283C29.7787 41.8813 29.802 41.4943 29.7854 41.4409C29.762 41.4943 29.2283 42.1081 29.1182 42.0881C28.8247 42.2182 28.5211 42.3817 28.2209 42.5452C27.9207 42.7086 27.6271 42.8788 27.3369 42.9955C27.2307 43.0451 27.1186 43.0809 27.0033 43.1023C26.8797 43.1236 26.7597 43.1618 26.6464 43.2157V43.2157L26.4296 43.3192L27.3236 42.4918C27.3337 42.482 27.3414 42.4699 27.3461 42.4566C27.3507 42.4433 27.3521 42.429 27.3503 42.415C27.3495 42.403 27.3462 42.3913 27.3406 42.3806C27.335 42.3699 27.3273 42.3605 27.3179 42.3529C27.3085 42.3454 27.2976 42.3399 27.2859 42.3368C27.2743 42.3337 27.2621 42.3331 27.2502 42.335C27.0883 42.3572 26.9301 42.4009 26.7798 42.4651C26.7014 42.4984 26.6213 42.5274 26.5397 42.5518C26.7116 42.2841 26.9392 42.0566 27.2068 41.8846C27.2735 41.8412 27.3402 41.8045 27.4103 41.7678C27.4775 41.7316 27.5479 41.7015 27.6204 41.6778C27.6672 41.6778 28.0508 41.4876 28.0441 41.4409C28.0207 41.3108 27.5404 41.4943 27.497 41.5009C27.0295 41.5368 26.5904 41.7392 26.2595 42.0714L24.655 43.0723L24.6249 43.099L23.9344 43.9797C23.9611 43.883 24.0078 43.7295 24.0512 43.5894C24.0946 43.4493 24.1079 43.4059 24.1246 43.3392C24.1295 43.3227 24.1296 43.3051 24.1249 43.2886C24.1202 43.272 24.1108 43.2572 24.0979 43.2458C24.0805 43.2288 24.0571 43.2194 24.0329 43.2194C24.0086 43.2194 23.9852 43.2288 23.9678 43.2458C23.7009 43.5494 23.3674 43.963 23.0405 44.3634C22.6435 44.8505 22.2632 45.3209 22.0831 45.5277C22.4316 44.6363 22.8792 43.7869 23.4174 42.9955C23.9344 42.2442 24.5256 41.5468 25.182 40.9138C25.1962 40.8994 25.2053 40.8809 25.2081 40.8609C25.2108 40.8409 25.207 40.8206 25.1973 40.8029C25.1875 40.7853 25.1723 40.7713 25.1539 40.763C25.1355 40.7547 25.115 40.7526 25.0953 40.757C24.715 40.8771 24.218 41.0472 23.7243 41.224C23.2306 41.4009 22.7703 41.5577 22.4067 41.6778C22.0431 41.7979 22.1932 41.7311 22.39 41.6044C22.7636 41.3608 23.1606 41.1973 23.5075 40.9772C23.9739 40.6735 24.4197 40.3392 24.8418 39.9763C24.8581 39.9637 24.8694 39.9457 24.8737 39.9256C24.878 39.9054 24.875 39.8843 24.8651 39.8662C24.8598 39.8553 24.8524 39.8456 24.8432 39.8377C24.8341 39.8297 24.8234 39.8237 24.8119 39.8199C24.8004 39.8162 24.7882 39.8148 24.7762 39.8159C24.7641 39.817 24.7524 39.8205 24.7417 39.8262C24.0561 40.1483 23.3184 40.3449 22.5635 40.4067L22.0631 40.4767C21.8191 40.5486 21.5706 40.6043 21.3192 40.6435C21.1791 40.6636 21.2191 40.5301 21.2025 40.5068C21.2358 40.1731 21.4893 40.023 21.8696 39.7528L21.9397 39.7027C21.9555 39.6913 21.9675 39.6752 21.9741 39.6567C21.9806 39.6383 21.9814 39.6182 21.9764 39.5993C21.9687 39.5767 21.9527 39.5579 21.9316 39.5467C21.9105 39.5356 21.8859 39.5329 21.8629 39.5393C21.3205 39.7033 20.8056 39.9473 20.3352 40.2632C19.9201 40.5431 19.5305 40.859 19.171 41.2074C19.4924 40.5744 19.9036 39.9912 20.3919 39.4759C21.2163 38.6649 22.2424 38.089 23.364 37.8078C23.3829 37.8012 23.3993 37.789 23.4112 37.773C23.4231 37.7569 23.4299 37.7377 23.4307 37.7177C23.4291 37.6932 23.4181 37.6703 23.4002 37.6536C23.3822 37.6369 23.3586 37.6276 23.334 37.6276L21.6261 37.6944C22.6862 37.2527 23.7792 36.8946 24.8951 36.6235L24.8685 36.5701ZM23.2706 28.6367C23.5008 29.1771 24.1279 29.9711 25.182 30.8586C25.1987 30.8754 25.2081 30.8982 25.2081 30.922C25.2081 30.9457 25.1987 30.9685 25.182 30.9853C25.1739 30.994 25.1641 31.001 25.1532 31.0057C25.1423 31.0104 25.1305 31.0129 25.1186 31.0129C25.1068 31.0129 25.095 31.0104 25.0841 31.0057C25.0732 31.001 25.0634 30.994 25.0553 30.9853C23.9878 30.1046 23.3474 29.2705 23.1005 28.7001C23.0238 28.5166 22.8303 28.3364 22.8336 28.2096C22.837 28.0829 23.0538 27.9794 23.1672 27.9227C23.4141 27.806 21.8629 27.0587 22.3099 26.4782C22.4534 26.3115 22.6222 26.1685 22.8103 26.0545H22.837C22.8637 26.0545 22.867 26.0178 22.8537 26.0011C22.6068 25.6308 21.7862 25.3973 21.6595 25.1637C21.2825 24.6299 22.1298 24.6066 22.0164 24.4965C21.7762 24.263 20.8922 24.2329 18.9442 23.3088C17.9239 22.7666 16.9431 22.1535 16.0087 21.4739C15.9887 21.4603 15.9748 21.4396 15.9698 21.4159C15.9648 21.3923 15.9692 21.3676 15.982 21.3471C15.9887 21.3372 15.9973 21.3286 16.0074 21.3221C16.0174 21.3155 16.0287 21.3109 16.0405 21.3088C16.0523 21.3066 16.0644 21.3068 16.0761 21.3094C16.0879 21.312 16.099 21.3169 16.1088 21.3238C17.0369 21.9317 18.0067 22.4735 19.0109 22.9452C20.0516 23.4389 21.1891 23.9027 22.4734 24.3831C22.5701 24.4198 22.5901 24.4765 22.5635 24.5532C22.5368 24.6299 22.44 24.6867 22.3333 24.7567C22.2265 24.8268 22.0564 24.9435 22.0731 24.9802C22.2589 25.191 22.486 25.3613 22.7402 25.4807C22.9676 25.5806 23.1737 25.7233 23.3474 25.901C23.3678 25.924 23.3824 25.9516 23.3901 25.9814C23.3977 26.0113 23.3981 26.0425 23.3913 26.0725C23.3844 26.1025 23.3705 26.1305 23.3507 26.154C23.3309 26.1776 23.3057 26.1961 23.2773 26.2079H23.254C23.0852 26.3082 22.9313 26.4318 22.797 26.5749C22.5935 26.8385 22.6602 27.2155 23.5708 27.9094C23.5795 27.9175 23.5865 27.9273 23.5912 27.9382C23.5959 27.9491 23.5984 27.9609 23.5984 27.9728C23.5984 27.9847 23.5959 27.9964 23.5912 28.0073C23.5865 28.0182 23.5795 28.028 23.5708 28.0362C23.5603 28.0503 23.5458 28.0609 23.5292 28.0669C23.5126 28.0728 23.4946 28.0737 23.4774 28.0695V28.0695C23.4018 28.0433 23.3196 28.0433 23.2439 28.0695C23.2185 28.0848 23.1981 28.1071 23.185 28.1337C23.172 28.1604 23.167 28.1902 23.1706 28.2197C23.1727 28.3544 23.2058 28.4868 23.2673 28.6066L23.2706 28.6367ZM14.2141 27.7226C11.8637 26.5594 9.65345 25.1323 7.62596 23.4689L6.64859 22.0844L7.87614 22.6282C7.89166 22.641 7.91111 22.6479 7.93118 22.6479C7.95126 22.6479 7.97071 22.641 7.98622 22.6282C8.00293 22.6114 8.0123 22.5886 8.0123 22.5648C8.0123 22.5411 8.00293 22.5183 7.98622 22.5015L6.75199 21.3305H6.73198C6.2153 21.0609 5.77827 20.6606 5.46439 20.1695C5.41593 20.0886 5.38842 19.9968 5.38434 19.9026C5.38291 19.8796 5.38813 19.8567 5.39936 19.8366C5.4106 19.8164 5.42739 19.8 5.44772 19.7892C5.58722 19.7416 5.73853 19.7416 5.87803 19.7892C5.89595 19.7942 5.91504 19.7934 5.93247 19.7868C5.94989 19.7802 5.96472 19.7682 5.97476 19.7525C5.98154 19.7424 5.98623 19.7312 5.98856 19.7193C5.99089 19.7074 5.9908 19.6952 5.98831 19.6834C5.98582 19.6716 5.98098 19.6604 5.97406 19.6505C5.96715 19.6405 5.95831 19.6321 5.94808 19.6257C5.5509 19.3997 5.19087 19.1139 4.88064 18.7783C4.78724 18.6282 4.95736 18.5281 5.63452 18.5348C5.65409 18.5407 5.67499 18.5407 5.69456 18.5348C5.71398 18.5309 5.73166 18.5209 5.74506 18.5064C5.75846 18.4918 5.76688 18.4733 5.76911 18.4537C5.77133 18.434 5.76725 18.4141 5.75745 18.3969C5.74765 18.3797 5.73263 18.3661 5.71458 18.3579C5.25041 17.7041 4.8526 17.0056 4.52705 16.2728C4.27833 15.7089 4.10127 15.116 4 14.508C4.23536 14.779 4.48831 15.0342 4.75722 15.272C5.12765 15.6028 5.5261 15.9008 5.94808 16.1627C5.96228 16.1709 5.97838 16.1753 5.99478 16.1753C6.01117 16.1753 6.02728 16.1709 6.04148 16.1627C6.06285 16.1513 6.07916 16.1323 6.08719 16.1095C6.09522 16.0866 6.09438 16.0616 6.08484 16.0393L4.62379 13.0368L6.29166 13.9776C6.30989 13.9864 6.3305 13.9891 6.35039 13.9852C6.37028 13.9813 6.38837 13.9711 6.40192 13.956C6.41548 13.941 6.42377 13.9219 6.42554 13.9017C6.42731 13.8815 6.42247 13.8613 6.41175 13.8441C5.95646 13.2382 5.55993 12.5903 5.22756 11.9091C4.96176 11.367 4.75917 10.7961 4.62379 10.2077C5.16084 10.7381 6.65192 12.5597 7.51255 13.6139C7.80943 13.9742 8.03292 14.2478 8.12299 14.3512C8.1311 14.3599 8.14092 14.3668 8.15182 14.3716C8.16272 14.3763 8.17448 14.3787 8.18637 14.3787C8.19825 14.3787 8.21001 14.3763 8.22092 14.3716C8.23182 14.3668 8.24163 14.3599 8.24975 14.3512C8.26645 14.3343 8.27582 14.3116 8.27582 14.2878C8.27582 14.2641 8.26645 14.2413 8.24975 14.2244V14.2244L7.64598 13.4905C6.73532 12.3795 5.13082 10.4179 4.6438 9.97081C4.77552 9.98239 4.90032 10.0349 5.00073 10.1209C6.16824 11.0184 7.26236 12.3528 8.33648 13.4404L8.62669 13.8474C9.99581 15.7404 11.591 17.459 13.3768 18.9651C13.8338 19.3454 14.4242 19.7725 14.9279 20.1395C15.4958 20.5675 16.092 20.9565 16.7125 21.3038C18.3804 22.3313 20.2718 23.0019 22.3833 23.6391C22.7869 23.7659 23.1972 23.8826 23.6142 23.9961C24.0312 24.1095 24.4415 24.2163 24.8584 24.3297C24.8701 24.3332 24.8823 24.3342 24.8943 24.3326C24.9064 24.3311 24.9179 24.3271 24.9283 24.3208C24.9387 24.3145 24.9476 24.3061 24.9546 24.2961C24.9615 24.2862 24.9662 24.2749 24.9685 24.263C24.9715 24.2513 24.9721 24.2393 24.9704 24.2274C24.9686 24.2155 24.9645 24.2041 24.9583 24.1939C24.9521 24.1836 24.9439 24.1747 24.9342 24.1677C24.9245 24.1606 24.9135 24.1556 24.9018 24.1529C24.4848 24.0528 24.0712 23.946 23.6609 23.8192C23.2506 23.6925 22.8437 23.5891 22.4367 23.4623C20.4293 22.8772 18.5013 22.0481 16.6959 20.9935V20.9935C16.1421 20.6599 15.6151 20.3029 15.1147 19.9426C14.6144 19.5823 14.1307 19.202 13.6737 18.825C12.1014 17.5063 10.6745 16.0233 9.41726 14.4012C9.5426 14.5231 9.67758 14.6347 9.82089 14.7349C10.2263 14.9706 10.5997 15.2576 10.9317 15.5889C11.1051 15.7624 11.3153 15.8992 11.4988 16.076C12.3791 16.945 13.3175 17.7531 14.3075 18.4947C15.4299 19.3182 16.6659 19.9745 17.9768 20.443C19.9782 21.157 21.7929 21.7508 23.374 22.2646C26.3762 23.2388 28.2476 24.0161 28.8146 24.6533C30.1309 27.3962 31.6484 30.0378 33.3546 32.5567C34.7423 34.4916 36.1633 35.7194 37.174 35.7427C38.932 36.0763 39.936 35.2957 40.4564 34.5951C40.5098 34.5217 40.5598 34.4483 40.6032 34.3749C40.4164 35.4558 40.4598 36.2531 40.6866 36.7102C40.7355 36.8173 40.802 36.9154 40.8834 37.0004C40.9342 37.0534 40.9927 37.0984 41.0569 37.1339C40.85 37.5509 40.9835 38.2248 41.3304 38.9388C41.4004 39.0856 41.4805 39.2323 41.5672 39.3825C41.654 39.5326 41.7373 39.656 41.8307 39.7928C41.5231 40.4092 41.1325 40.9805 40.6699 41.4909C40.1987 42.0054 39.5952 42.3805 38.9253 42.5752L34.6355 43.3158C33.3012 43.1924 33.1845 42.2049 33.3012 41.0572C33.3246 40.7837 33.3646 40.4968 33.4013 40.2098C33.438 39.9229 33.4814 39.596 33.5081 39.3057C33.5088 39.2888 33.5052 39.2719 33.4976 39.2568C33.49 39.2416 33.4787 39.2286 33.4647 39.219C33.4438 39.2065 33.4189 39.2027 33.3952 39.2083C33.3715 39.2139 33.351 39.2285 33.3379 39.249C33.2245 39.4292 33.1044 39.5159 32.9743 39.5059H32.951C32.4606 39.5993 32.1437 39.1723 31.6901 39.209C31.5199 39.209 31.2898 39.6861 31.083 39.6927L31.2231 39.0522C30.8895 39.0522 30.0189 39.666 29.692 39.7194C29.5518 39.7428 30.626 38.4917 30.5359 38.4717C30.4458 38.4517 29.2016 39.5726 29.1349 39.5693C28.908 39.5693 28.9814 39.5426 28.8013 39.5026C28.8013 39.5026 28.9214 39.3191 28.8013 39.2057C28.6812 39.0922 28.3376 39.3625 28.1342 39.3758L28.0641 39.3458H28.0408H28.0174C28.0001 39.3018 28.0001 39.2529 28.0174 39.209C28.0674 39.0188 28.6846 38.6152 28.351 38.6885C28.2609 38.7086 28.1275 38.782 28.0508 38.7886C27.7872 38.8187 27.4503 39.1223 27.1868 39.1223C26.9148 39.0729 26.6463 39.006 26.3829 38.9221C26.4129 38.872 26.4363 38.812 26.4896 38.8087C26.6073 38.7418 26.7123 38.6549 26.7999 38.5518C27.1334 38.1581 26.5263 38.485 26.2728 38.485C25.9697 38.4598 25.6813 38.3435 25.4455 38.1514C25.4088 38.098 25.3755 38.0013 25.3321 37.9246C25.3366 37.9065 25.3422 37.8886 25.3488 37.8712C25.9935 37.5089 26.6622 37.1912 27.3503 36.9204C27.6138 36.817 29.6152 36.3299 29.6519 36.2531C29.6562 36.242 29.6582 36.2301 29.6578 36.2181C29.6574 36.2062 29.6547 36.1945 29.6497 36.1836C29.6447 36.1727 29.6376 36.1629 29.6289 36.1548C29.6201 36.1467 29.6098 36.1405 29.5986 36.1364C29.304 36.0228 29.0033 35.9259 28.6979 35.8461V35.8461C28.6946 35.8219 28.6819 35.8 28.6625 35.785C28.6432 35.77 28.6188 35.7632 28.5945 35.7661L28.4511 35.7861C28.1709 35.716 27.8806 35.6493 27.5838 35.5826C25.8358 35.1856 23.771 34.6251 22.4334 33.384C22.3322 33.2993 22.2493 33.1949 22.1898 33.0771C22.1898 33.0337 22.1898 33.0037 22.2165 32.987C22.4203 32.9398 22.6327 32.9455 22.8336 33.0037C22.8548 33.0083 22.8769 33.0051 22.8959 32.9946C22.9149 32.9842 22.9295 32.9673 22.9371 32.947C22.9446 32.924 22.9429 32.8989 22.9323 32.8772C22.9217 32.8554 22.9031 32.8386 22.8803 32.8302C21.7829 32.4399 21.5194 32.113 22.0964 31.8494C22.1099 31.8441 22.1219 31.8356 22.1312 31.8245C22.1405 31.8134 22.1469 31.8002 22.1498 31.786C22.1528 31.7744 22.1534 31.7623 22.1517 31.7504C22.1499 31.7386 22.1458 31.7272 22.1396 31.7169C22.1334 31.7067 22.1252 31.6978 22.1155 31.6907C22.1058 31.6837 22.0948 31.6787 22.0831 31.6759C20.7933 31.3757 20.5175 30.9976 21.2558 30.5416L21.2859 30.5149C21.2926 30.5049 21.2973 30.4937 21.2997 30.4818C21.302 30.4699 21.3019 30.4577 21.2994 30.4459C21.2969 30.4341 21.2921 30.4228 21.2852 30.4129C21.2782 30.403 21.2694 30.3946 21.2592 30.3882C21.1403 30.322 21.0413 30.2252 20.9723 30.1079C20.9556 30.071 20.9512 30.0298 20.9596 29.9902C20.968 29.9506 20.9888 29.9147 21.019 29.8877C21.0334 29.8723 21.0417 29.8521 21.0424 29.831C21.0437 29.8194 21.0427 29.8075 21.0394 29.7963C21.0361 29.785 21.0305 29.7745 21.023 29.7655C21.0156 29.7565 21.0063 29.749 20.9959 29.7437C20.9854 29.7383 20.974 29.7351 20.9623 29.7343C18.6105 29.4869 16.3219 28.8214 14.2041 27.7693L14.2141 27.7226ZM34.5722 16.6732C34.0318 14.1277 33.6081 11.8024 33.7616 9.33361C33.915 6.86484 34.6389 4.28598 36.4068 1.22004C36.5833 0.953669 36.7067 0.65576 36.7704 0.342633C36.7704 0.245884 36.6136 0.259228 36.21 0.476079C35.6505 0.761571 35.1303 1.11816 34.6622 1.53698C34.2195 1.94299 33.8415 2.4144 33.5414 2.93484L33.2812 3.38855L33.3546 2.87478C33.4155 2.64309 33.4314 2.40185 33.4013 2.16418C33.3813 2.10413 33.2946 2.14083 33.0877 2.33432L30.726 5.63046L29.6186 7.03499C28.8041 8.17289 28.2361 9.46824 27.9507 10.8382C27.6787 12.2045 27.6258 13.6055 27.7939 14.9884L27.854 15.5389L27.6204 15.0385C27.2068 14.1444 26.8766 13.5639 26.6831 13.4705C26.5597 13.4137 26.5197 13.8041 26.5997 14.7582C26.709 15.8746 26.9612 16.9723 27.3503 18.0243C27.487 18.4514 27.6205 18.8817 27.7439 19.3221L27.7772 19.4355H27.6605C27.6104 19.4355 27.5904 19.4722 27.5904 19.5289C27.5904 19.8125 27.954 20.4364 28.3009 21.0469C28.5275 21.4242 28.7302 21.8153 28.908 22.2179L28.9881 22.4181L28.7913 22.338C28.2976 22.1345 28.0908 22.1145 28.0541 22.2012C27.9874 22.3647 28.2776 22.8351 28.5645 23.3055C28.7771 23.6172 28.9518 23.9532 29.0848 24.3063L28.9948 24.3297H28.9381C29.0048 24.3825 29.0673 24.4405 29.1249 24.5032C31.3698 28.9736 33.428 32.4432 35.1292 34.178C35.0425 34.0346 34.9091 33.761 34.7957 33.5108C34.7089 33.3307 34.6322 33.1772 34.6055 33.1238C34.1871 32.3262 33.8903 31.4704 33.7249 30.585C33.5971 29.9896 33.4266 29.4043 33.2145 28.8335V28.8335C33.188 28.6925 33.1922 28.5474 33.2267 28.4081C33.2613 28.2688 33.3254 28.1385 33.4146 28.0262C33.4413 27.9861 33.4614 27.9494 33.4747 27.9261C33.3246 27.876 33.1878 27.6392 33.1011 27.4557C33.0811 27.419 33.0644 27.3823 33.0511 27.3522C33.0377 27.3222 33.031 27.2955 33.021 27.2755C32.9943 27.2055 33.041 27.1621 33.1078 27.1054C33.1539 27.0725 33.1926 27.0302 33.2214 26.9814C33.2501 26.9325 33.2682 26.8781 33.2745 26.8218C33.2733 26.5585 33.2397 26.2963 33.1745 26.0411C33.141 25.9295 33.1219 25.814 33.1178 25.6975V25.6975H33.1811H33.2445C33.2514 25.8102 33.2693 25.9219 33.2979 26.0311C33.3629 26.2988 33.3976 26.573 33.4013 26.8485C33.394 26.9218 33.3711 26.9927 33.3343 27.0566C33.2975 27.1204 33.2476 27.1757 33.1878 27.2188C33.1611 27.2422 33.1344 27.2355 33.1378 27.2455L33.1678 27.3156L33.2112 27.4156C33.2946 27.5891 33.4247 27.8193 33.5247 27.8193C33.6248 27.8193 33.6148 27.8493 33.6148 27.9061C33.5989 27.9789 33.567 28.0472 33.5214 28.1062C33.4113 28.2897 33.2412 28.5733 33.3279 28.8001C33.5814 29.332 33.7954 29.8817 33.9684 30.4449C34.302 31.8461 34.5588 33.1672 35.5462 34.3415C36.0199 34.9053 36.3635 35.3958 37.2141 35.4291C37.107 35.3386 37.0137 35.233 36.9372 35.1155C36.7924 34.8852 36.6801 34.636 36.6036 34.3749C36.1066 32.8636 36.1199 29.9778 37.6744 25.9511C37.8572 25.641 37.9593 25.29 37.9713 24.9302C37.9876 24.4957 37.9427 24.0611 37.8379 23.6391C37.6244 22.695 37.0906 21.7508 36.4835 20.6732C35.7201 19.4062 35.0875 18.0649 34.5955 16.6698V16.6698L34.5722 16.6732ZM40.2263 23.6958C40.3496 24.4756 40.5268 25.2459 40.7566 26.0011C41.4738 28.2764 42.2677 31.0054 41.2036 33.2773C41.1244 33.4461 41.033 33.6089 40.9301 33.7644C40.5965 35.1422 40.6299 36.063 40.8801 36.5868C41.0435 36.9204 41.1236 36.837 41.3404 37.0672L41.2737 37.1639C41.1036 37.4975 41.2737 38.1648 41.5072 38.8754L41.6173 39.0922L41.7507 39.3224L41.8674 39.5126L41.9475 39.6327C42.3402 39.1017 42.5359 38.4506 42.5012 37.7911C43.3285 37.0271 43.5487 36.0163 43.5553 34.5317C43.562 33.0471 43.0183 31.0554 42.4545 28.8602C42.1319 28.0457 41.9188 27.192 41.8207 26.3214C41.694 25.0536 41.8641 24.4731 42.1243 23.3188L41.5405 23.479L42.2077 23.0486C42.9115 22.4981 42.8582 22.5582 43.2551 21.7608L43.2218 21.3471L43.1384 21.4806L43.115 21.514V21.5306C43.0316 21.6107 42.9416 21.6908 42.8515 21.7642L42.8949 21.9076C42.8919 21.9545 42.8797 22.0004 42.8589 22.0426C42.8382 22.0848 42.8093 22.1224 42.774 22.1534C42.7387 22.1844 42.6976 22.2081 42.653 22.2232C42.6085 22.2383 42.5615 22.2444 42.5146 22.2412C42.4295 22.2447 42.3459 22.2188 42.2777 22.1678C42.159 22.239 42.0365 22.3036 41.9108 22.3613C41.6263 22.4734 41.3226 22.529 41.0168 22.5248C40.8336 22.5306 40.651 22.5473 40.4698 22.5749H40.4531C40.243 22.9082 40.1623 23.307 40.2263 23.6958Z" fill="#9C9D9D"/>
<path fill-rule="evenodd" clip-rule="evenodd" d="M21.1491 53.8729C21.1198 53.8902 21.0849 53.8954 21.0518 53.8873C21.0188 53.8792 20.9902 53.8585 20.9723 53.8296C20.9561 53.7997 20.9519 53.7647 20.9606 53.7319C20.9692 53.699 20.9901 53.6707 21.019 53.6527C21.1523 53.563 21.3086 53.5132 21.4693 53.5093C21.541 53.5117 21.6091 53.5416 21.6594 53.5927C21.7083 53.6451 21.7346 53.7146 21.7328 53.7862C21.7188 53.941 21.6597 54.0883 21.5627 54.2099V54.2099C21.5184 54.2704 21.4693 54.3273 21.4159 54.38C21.4385 54.4033 21.4545 54.432 21.4626 54.4634C21.4747 54.5172 21.4747 54.5731 21.4626 54.6269C21.4119 54.8688 21.2967 55.0925 21.129 55.2741V55.2741C20.7101 55.7092 20.2498 56.1025 19.7547 56.4484L19.5312 56.6186C19.5046 56.6388 19.4711 56.6476 19.438 56.6433C19.4049 56.6389 19.3749 56.6216 19.3544 56.5952C19.3111 56.5385 19.3844 56.4951 19.4411 56.4518L19.6646 56.2816C20.1261 55.9333 20.5519 55.5399 20.9356 55.1073V55.1073C21.0665 54.9686 21.1596 54.7986 21.2058 54.6135L20.9189 54.767C20.6253 54.9238 20.2517 55.1273 20.095 55.194H20.0783C20.0182 55.2274 19.9348 55.2674 19.8681 55.194C20.3451 54.7904 21.0123 54.5768 21.3459 54.0564C21.4105 53.9765 21.4531 53.881 21.4693 53.7795V53.7628H21.4459C21.3388 53.772 21.2362 53.81 21.1491 53.8729V53.8729Z" fill="white"/>
<path fill-rule="evenodd" clip-rule="evenodd" d="M23.1005 55.1407C23.0852 55.1496 23.0683 55.1554 23.0508 55.1577C23.0332 55.16 23.0154 55.1588 22.9983 55.1541C22.9813 55.1495 22.9653 55.1415 22.9513 55.1306C22.9374 55.1197 22.9257 55.1061 22.9171 55.0907C22.8958 55.0605 22.886 55.0236 22.8897 54.9869C22.8934 54.9501 22.9102 54.9159 22.9371 54.8905C23.0566 54.7867 23.2091 54.7288 23.3674 54.7271C23.4448 54.7304 23.5178 54.764 23.5709 54.8205C23.6269 54.8813 23.662 54.9584 23.671 55.0407C23.6811 55.2087 23.6441 55.3762 23.5642 55.5244V55.5244C23.5314 55.5931 23.4911 55.658 23.4441 55.7179C23.4687 55.7471 23.4889 55.7797 23.5042 55.8146C23.5255 55.8734 23.5357 55.9356 23.5342 55.9981C23.5237 56.2619 23.4419 56.5179 23.2974 56.7388V56.7388C22.9492 57.2269 22.5476 57.6745 22.0998 58.0732L21.903 58.2667C21.8894 58.2776 21.8738 58.2856 21.857 58.2902C21.8402 58.2947 21.8227 58.2958 21.8055 58.2933C21.7883 58.2908 21.7718 58.2848 21.757 58.2756C21.7422 58.2664 21.7295 58.2543 21.7195 58.24C21.6695 58.1733 21.7195 58.1266 21.7863 58.0766C21.853 58.0265 21.9063 57.9598 21.9864 57.8831C22.3993 57.481 22.7653 57.0333 23.0772 56.5486V56.5486C23.1882 56.3794 23.2568 56.1861 23.2773 55.9848L23.0105 56.1583C22.7403 56.3384 22.3934 56.5686 22.2533 56.6454C22.1966 56.6821 22.1198 56.7288 22.0431 56.6454C22.4501 56.195 23.0772 55.9514 23.3541 55.3676C23.4145 55.2672 23.4436 55.151 23.4375 55.034V55.014H23.4174C23.3 55.0166 23.1874 55.0616 23.1005 55.1407V55.1407Z" fill="white"/>
<path fill-rule="evenodd" clip-rule="evenodd" d="M27.8506 46.5366C27.1034 48.1847 26.3596 49.6659 25.5356 51.1272C24.8952 52.2615 24.2013 53.3858 23.4174 54.5668C23.3274 54.7002 23.5675 54.7436 23.5675 54.6669C24.1346 53.8328 24.9719 52.5317 25.7858 51.1972C26.6453 49.8278 27.425 48.4097 28.1208 46.9503C28.5033 46.8672 28.8791 46.7557 29.245 46.6167L28.7513 46.5466L28.1976 46.3665C28.0174 46.4165 27.8807 46.4732 27.8506 46.5366Z" fill="white"/>
<path fill-rule="evenodd" clip-rule="evenodd" d="M24.2447 50.7201C25.0186 49.4515 25.5913 48.0707 25.9426 46.6267C26.046 46.5099 26.096 46.3564 26.2528 46.1729L26.6831 45.6792L28.2242 44.2246L27.9373 44.2446L26.553 45.5491L26.5263 45.5824C26.5178 45.5652 26.5052 45.5503 26.4896 45.5391C26.476 45.5308 26.4605 45.5265 26.4446 45.5265C26.4287 45.5265 26.4131 45.5308 26.3995 45.5391C26.1127 45.6625 25.7324 45.8727 25.7824 46.2397C25.3364 47.7515 24.7174 49.2068 23.9378 50.5767C23.3435 51.6327 22.5664 52.5748 21.6428 53.3591C21.6261 53.3759 21.6167 53.3987 21.6167 53.4224C21.6167 53.4462 21.6261 53.469 21.6428 53.4858C21.6494 53.4959 21.6581 53.5045 21.6682 53.5111C21.6784 53.5176 21.6898 53.522 21.7017 53.5239C21.7137 53.5258 21.7259 53.5251 21.7375 53.522C21.7492 53.5189 21.7601 53.5134 21.7695 53.5058C22.7593 52.7379 23.5985 51.7935 24.2447 50.7201V50.7201Z" fill="white"/>
<path fill-rule="evenodd" clip-rule="evenodd" d="M23.5877 50.791C24.341 49.4679 24.9408 48.0632 25.3757 46.6041C25.3757 46.0937 25.7893 45.8034 26.2129 45.6033C26.2713 45.5749 26.3349 45.559 26.3997 45.5565L27.7607 44.2755L28.0943 44.2554L28.7214 43.6082L28.538 43.7016L28.1644 43.8885L27.8575 44.0419L27.5973 43.6382L27.4872 43.6883C27.358 43.7477 27.2227 43.7924 27.0836 43.8217C26.9826 43.8422 26.8842 43.8736 26.79 43.9152C26.7166 43.9452 26.6099 44.0086 26.5398 44.0286L24.912 44.5524L26.1429 43.4114L25.6826 43.5515L26.0161 42.9777L24.8353 43.705L22.9639 46.087L23.2975 44.906L23.2708 44.9394C22.9372 45.333 22.6337 45.74 22.3001 46.117L20.8657 47.7451L21.6797 45.7267C22.0432 44.8085 22.5074 43.9335 23.064 43.1178C23.3719 42.6692 23.706 42.2392 24.0647 41.83L23.8145 41.9168C23.3742 42.0702 22.9239 42.2504 22.4802 42.3772C22.2501 42.4406 21.9532 42.544 21.8131 42.2004C21.7822 42.1163 21.7809 42.0242 21.8094 41.9393C21.8379 41.8543 21.8945 41.7817 21.9699 41.7333L22.0299 41.6966L22.1533 41.6232C22.4869 41.3997 22.8738 41.2362 23.2174 41.026C23.0173 41.0594 22.8138 41.0894 22.6037 41.1161C22.3935 41.1428 22.2701 41.1528 22.1266 41.1862C21.8698 41.2395 21.6096 41.3296 21.3527 41.3596C21.2939 41.3711 21.2334 41.3705 21.1748 41.358C21.1161 41.3454 21.0607 41.321 21.0118 41.2864C20.9628 41.2518 20.9214 41.2077 20.89 41.1566C20.8586 41.1055 20.8378 41.0486 20.829 40.9893L20.799 40.9493V40.8125V40.7425L20.5188 40.9193C20.1224 41.1858 19.7507 41.4872 19.408 41.82L17.6834 43.4881L18.8109 41.3797C19.1499 40.7153 19.5824 40.103 20.0952 39.5614C20.5437 39.109 21.0604 38.7297 21.6263 38.4372L19.5181 38.5172L21.4528 37.7065C22.5344 37.2568 23.6498 36.8932 24.7886 36.6189C25.4924 36.4455 26.2063 36.302 26.9235 36.1819C25.2556 35.7749 23.4443 35.1811 22.2 34.0301C22.0574 33.906 21.9435 33.7523 21.8665 33.5797C21.8399 33.5118 21.83 33.4385 21.8375 33.3659C21.845 33.2934 21.8698 33.2237 21.9098 33.1627C21.7695 33.1011 21.6498 33.0004 21.5652 32.8726C21.4806 32.7448 21.4347 32.5953 21.4328 32.4421C21.4383 32.3773 21.4553 32.3141 21.4828 32.2552C21.0225 32.1084 20.5288 31.8582 20.4821 31.4145C20.4775 31.2989 20.4995 31.1837 20.5463 31.0779C20.5932 30.972 20.6636 30.8784 20.7523 30.804C20.7014 30.7476 20.6597 30.6834 20.6289 30.6138C20.6021 30.5549 20.5862 30.4916 20.5822 30.427C18.3115 30.1433 16.104 29.4825 14.0508 28.472C13.6071 28.2585 13.1668 28.0316 12.7332 27.8048C11.3271 32.3051 11.6587 37.169 13.6626 41.4367C15.6665 45.7044 19.1971 49.0658 23.5577 50.8577L23.5877 50.8077V50.791ZM18.087 20.4919C19.8717 21.1324 21.6797 21.7229 23.4743 22.3101C24.5417 22.6437 27.1436 23.4844 28.4779 24.3318C28.3878 24.1717 28.2844 23.9982 28.2177 23.9015C28.0109 23.5679 27.5139 22.8606 27.6807 22.4569C27.7277 22.3501 27.8115 22.2638 27.9168 22.2136C28.0221 22.1634 28.1419 22.1527 28.2544 22.1833C28.1543 21.9932 28.0443 21.8097 27.9475 21.6329C27.724 21.2392 27.2037 20.3818 27.1903 19.9414C27.1816 19.8206 27.2199 19.7011 27.2971 19.6078C27.1903 19.2475 27.0802 18.8905 26.9635 18.5336C26.5835 17.4546 26.3305 16.335 26.2096 15.1974V15.1273C22.8313 15.9566 19.75 17.7089 17.3098 20.1883C17.5633 20.2951 17.8235 20.3985 18.087 20.4919ZM36.7906 20.8956C37.3243 21.8431 37.9448 22.8973 38.1849 23.9615C38.2979 24.4196 38.3451 24.8914 38.325 25.3627C38.3129 25.7747 38.1983 26.1772 37.9915 26.5337C37.1842 28.7089 36.1802 32.382 36.934 34.6806C37.0053 34.9076 37.1062 35.1241 37.2343 35.3245C37.2931 35.4128 37.3625 35.4935 37.4411 35.5647L37.7246 35.8016C38.6586 35.8183 39.5793 35.5647 40.1664 34.774C40.2097 34.714 40.2531 34.6506 40.2931 34.5839L40.54 34.1702L40.56 34.0801L40.5767 34.0167L40.6134 33.96C40.7053 33.8189 40.7878 33.6717 40.8602 33.5196C41.8609 31.3411 41.077 28.6755 40.3932 26.5137C40.1635 25.7476 39.983 24.9675 39.8528 24.1784C39.804 23.7816 39.8556 23.379 40.0029 23.0074L38.9388 23.5545L39.6427 22.4035C40.0997 21.6529 40.54 21.4827 41.2505 21.1024C41.8309 20.7922 42.7883 20.5419 43.3253 21.0724L43.4121 21.1558V21.1792L44.5295 20.652C41.878 17.7711 38.3936 15.7896 34.5623 14.9839C34.6791 15.6511 34.8125 16.3184 34.9426 16.9856C35.3562 18.4302 36.0601 19.6045 36.7906 20.8956ZM42.4947 23.7914L42.5181 23.688C43.1652 23.2609 43.1852 23.1308 43.5188 22.5103L45.3101 21.5094C47.8057 24.5729 49.2748 28.3438 49.5095 32.2884C49.7441 36.233 48.7324 40.1514 46.6175 43.4892C44.5026 46.8271 41.3917 49.4151 37.7251 50.8872C34.0584 52.3592 30.0217 52.6407 26.1863 51.6918C27.0116 50.4038 27.758 49.0669 28.4212 47.6884C28.7607 47.6052 29.0949 47.5016 29.4219 47.3781L30.1191 46.7576C31.2299 46.2705 32.1572 45.4865 33.1213 44.7359L33.3081 44.5891L33.5149 44.4856L33.5616 44.6925L35.1594 44.0252L39.0356 43.358C39.8012 43.1846 40.489 42.765 40.9937 42.1637C41.48 41.6271 41.8908 41.0266 42.2145 40.3788L42.2746 40.2654V40.242C42.6788 39.6874 42.8993 39.0201 42.905 38.3337C43.809 37.4096 43.9458 36.1886 43.9525 34.9242C43.9525 33.0859 43.3887 30.8741 42.8317 29.1326C42.5428 28.3341 42.3371 27.5079 42.2179 26.6672C42.1011 25.5095 42.2612 24.889 42.5114 23.7814L42.4947 23.7914ZM29.2118 44.5057C29.4918 44.4488 29.7647 44.3616 30.0257 44.2454L30.0691 44.2254L31.0931 43.4247C31.0294 43.6434 30.9814 43.8664 30.9497 44.092L30.9063 44.4256C30.6593 44.751 30.3835 45.0536 30.0824 45.3297C29.6736 45.7146 29.2265 46.0566 28.7481 46.3506L28.5613 46.4607L28.2277 46.3439L28.111 46.3806C27.9869 46.4006 27.8686 46.4474 27.7643 46.5176C27.6601 46.5879 27.5723 46.68 27.5072 46.7876C26.7934 48.3356 26.0428 49.8635 25.2055 51.3481C25.1891 51.3726 25.1746 51.3982 25.1622 51.4249C24.9754 51.3648 24.7919 51.3081 24.6118 51.2447C25.3634 49.9826 25.9253 48.6169 26.2797 47.1913C26.3664 47.0678 26.4298 46.931 26.5265 46.8143L26.9268 46.3472L28.8148 44.5724C28.9549 44.5524 29.085 44.5323 29.2118 44.5057Z" fill="#E3000F"/>
<path fill-rule="evenodd" clip-rule="evenodd" d="M43.4386 21.1503L50 18.061L43.502 21.6708L43.4386 21.1503ZM43.0583 20.9235C42.8115 20.6766 42.231 20.6732 41.4271 21.0169C40.9334 21.3505 40.403 21.4639 39.9661 22.1812C40.2429 22.0377 40.4931 21.8175 40.77 21.6741C40.6333 21.8632 40.542 22.0812 40.5031 22.3113C40.7833 22.2379 41.3504 22.3113 41.7674 22.1145C42.2032 21.9116 42.6023 21.6376 42.9482 21.3038C42.9985 21.2558 43.0352 21.1953 43.0546 21.1285C43.0739 21.0617 43.0752 20.9909 43.0583 20.9235V20.9235ZM23.2706 28.6367C23.5008 29.1771 24.1279 29.9711 25.182 30.8586C25.1987 30.8754 25.2081 30.8982 25.2081 30.922C25.2081 30.9457 25.1987 30.9685 25.182 30.9853C25.1739 30.994 25.1641 31.001 25.1532 31.0057C25.1423 31.0104 25.1305 31.0129 25.1186 31.0129C25.1068 31.0129 25.095 31.0104 25.0841 31.0057C25.0732 31.001 25.0634 30.994 25.0553 30.9853C23.9878 30.1046 23.3474 29.2705 23.1005 28.7001C23.0238 28.5166 22.8303 28.3364 22.8336 28.2096C22.837 28.0829 23.0538 27.9795 23.1672 27.9227C23.4141 27.806 21.8629 27.0587 22.3099 26.4782C22.4534 26.3115 22.6222 26.1685 22.8103 26.0545H22.837C22.8637 26.0545 22.867 26.0178 22.8537 26.0011C22.6068 25.6308 21.7862 25.3973 21.6595 25.1637C21.2825 24.6299 22.1298 24.6066 22.0164 24.4965C21.7762 24.263 20.8922 24.2329 18.9442 23.3088C17.9239 22.7666 16.9431 22.1535 16.0087 21.4739C15.9887 21.4603 15.9748 21.4396 15.9698 21.4159C15.9648 21.3923 15.9692 21.3676 15.982 21.3471C15.9887 21.3372 15.9973 21.3286 16.0074 21.3221C16.0174 21.3155 16.0287 21.3109 16.0405 21.3088C16.0523 21.3066 16.0644 21.3068 16.0761 21.3094C16.0879 21.312 16.099 21.3169 16.1088 21.3238C17.0369 21.9317 18.0067 22.4735 19.0109 22.9452C20.0516 23.4389 21.1891 23.9027 22.4734 24.3831C22.5701 24.4198 22.5901 24.4765 22.5635 24.5532C22.5368 24.6299 22.44 24.6867 22.3333 24.7567C22.2265 24.8268 22.0564 24.9435 22.0731 24.9802C22.2589 25.191 22.486 25.3613 22.7402 25.4807C22.9676 25.5806 23.1737 25.7233 23.3474 25.901C23.3678 25.924 23.3824 25.9516 23.3901 25.9814C23.3977 26.0113 23.3981 26.0425 23.3913 26.0725C23.3844 26.1025 23.3705 26.1305 23.3507 26.154C23.3309 26.1776 23.3057 26.1961 23.2773 26.2079H23.254C23.0852 26.3083 22.9313 26.4318 22.797 26.5749C22.5935 26.8385 22.6602 27.2155 23.5708 27.9094C23.5795 27.9175 23.5865 27.9273 23.5912 27.9382C23.5959 27.9491 23.5984 27.9609 23.5984 27.9728C23.5984 27.9847 23.5959 27.9964 23.5912 28.0073C23.5865 28.0182 23.5795 28.0281 23.5708 28.0362C23.5603 28.0503 23.5458 28.0609 23.5292 28.0669C23.5126 28.0728 23.4946 28.0737 23.4774 28.0695V28.0695C23.4018 28.0433 23.3196 28.0433 23.2439 28.0695C23.2185 28.0848 23.1981 28.1071 23.185 28.1337C23.172 28.1604 23.167 28.1902 23.1706 28.2197C23.1727 28.3544 23.2058 28.4868 23.2673 28.6067L23.2706 28.6367ZM14.2141 27.7226C11.8637 26.5594 9.65345 25.1323 7.62596 23.469L6.64859 22.0844L7.87614 22.6282C7.89166 22.641 7.91111 22.6479 7.93118 22.6479C7.95126 22.6479 7.97071 22.641 7.98622 22.6282C8.00293 22.6114 8.0123 22.5886 8.0123 22.5649C8.0123 22.5411 8.00293 22.5183 7.98622 22.5015L6.75199 21.3305H6.73198C6.2153 21.0609 5.77827 20.6606 5.46439 20.1695C5.41593 20.0886 5.38842 19.9968 5.38434 19.9026C5.38291 19.8796 5.38813 19.8567 5.39936 19.8366C5.4106 19.8164 5.42739 19.8 5.44772 19.7892C5.58722 19.7416 5.73853 19.7416 5.87803 19.7892C5.89595 19.7942 5.91504 19.7934 5.93247 19.7868C5.94989 19.7802 5.96472 19.7682 5.97476 19.7525C5.98154 19.7425 5.98623 19.7312 5.98856 19.7193C5.99089 19.7075 5.9908 19.6952 5.98831 19.6834C5.98582 19.6716 5.98098 19.6604 5.97406 19.6505C5.96715 19.6405 5.95831 19.6321 5.94808 19.6257C5.5509 19.3997 5.19087 19.1139 4.88064 18.7783C4.78724 18.6282 4.95736 18.5281 5.63452 18.5348C5.65409 18.5407 5.67499 18.5407 5.69456 18.5348C5.71398 18.5309 5.73166 18.5209 5.74506 18.5064C5.75846 18.4918 5.76688 18.4733 5.76911 18.4537C5.77133 18.434 5.76725 18.4141 5.75745 18.3969C5.74765 18.3797 5.73263 18.3661 5.71458 18.3579C5.25041 17.7041 4.8526 17.0056 4.52705 16.2728C4.27833 15.7089 4.10127 15.116 4 14.508C4.23536 14.779 4.48831 15.0342 4.75722 15.272C5.12765 15.6028 5.5261 15.9008 5.94808 16.1627C5.96228 16.1709 5.97838 16.1753 5.99478 16.1753C6.01117 16.1753 6.02728 16.1709 6.04148 16.1627C6.06285 16.1513 6.07916 16.1323 6.08719 16.1095C6.09522 16.0866 6.09438 16.0616 6.08484 16.0393L4.62379 13.0368L6.29166 13.9776C6.30989 13.9864 6.3305 13.9891 6.35039 13.9852C6.37028 13.9813 6.38837 13.9711 6.40192 13.956C6.41548 13.941 6.42377 13.9219 6.42554 13.9017C6.42731 13.8815 6.42247 13.8613 6.41175 13.8441C5.95646 13.2382 5.55993 12.5903 5.22756 11.9091C4.96176 11.367 4.75917 10.7961 4.62379 10.2077C5.16084 10.7381 6.65192 12.5597 7.51255 13.6139C7.80943 13.9742 8.03292 14.2478 8.12299 14.3512C8.1311 14.3599 8.14092 14.3668 8.15182 14.3716C8.16272 14.3763 8.17448 14.3787 8.18637 14.3787C8.19825 14.3787 8.21001 14.3763 8.22092 14.3716C8.23182 14.3668 8.24163 14.3599 8.24975 14.3512C8.26645 14.3343 8.27582 14.3116 8.27582 14.2878C8.27582 14.2641 8.26645 14.2413 8.24975 14.2244V14.2244L7.64598 13.4905C6.73532 12.3795 5.13082 10.4179 4.6438 9.97082C4.77552 9.9824 4.90032 10.0349 5.00073 10.1209C6.16824 11.0184 7.26236 12.3528 8.33648 13.4404L8.62669 13.8474C9.99581 15.7404 11.591 17.459 13.3768 18.9651C13.8338 19.3454 14.4242 19.7725 14.9279 20.1395C15.4958 20.5675 16.092 20.9565 16.7125 21.3038C18.3804 22.3313 20.2718 23.0019 22.3833 23.6391C22.7869 23.7659 23.1972 23.8826 23.6142 23.9961C24.0312 24.1095 24.4415 24.2163 24.8584 24.3297C24.8701 24.3332 24.8823 24.3342 24.8943 24.3326C24.9064 24.3311 24.9179 24.3271 24.9283 24.3208C24.9387 24.3145 24.9476 24.3061 24.9546 24.2961C24.9615 24.2862 24.9662 24.2749 24.9685 24.263C24.9715 24.2513 24.9721 24.2393 24.9704 24.2274C24.9686 24.2155 24.9645 24.2041 24.9583 24.1939C24.9521 24.1836 24.9439 24.1747 24.9342 24.1677C24.9245 24.1606 24.9135 24.1556 24.9018 24.1529C24.4848 24.0528 24.0712 23.946 23.6609 23.8193C23.2506 23.6925 22.8437 23.5891 22.4367 23.4623C20.4293 22.8772 18.5013 22.0481 16.6959 20.9935V20.9935C16.1421 20.6599 15.6151 20.3029 15.1147 19.9426C14.6144 19.5823 14.1307 19.202 13.6737 18.825C12.1014 17.5063 10.6745 16.0233 9.41726 14.4012C9.5426 14.5231 9.67758 14.6347 9.82089 14.7349C10.2263 14.9706 10.5997 15.2576 10.9317 15.5889C11.1051 15.7624 11.3153 15.8992 11.4988 16.076C12.3791 16.945 13.3175 17.7531 14.3075 18.4947C15.4299 19.3182 16.6659 19.9745 17.9768 20.443C19.9782 21.157 21.7929 21.7508 23.374 22.2646C26.3762 23.2388 28.2476 24.0161 28.8146 24.6533C30.1309 27.3962 31.6484 30.0378 33.3546 32.5567C34.7423 34.4917 36.1633 35.7194 37.174 35.7427C38.932 36.0763 39.936 35.2957 40.4564 34.5951C40.5098 34.5217 40.5598 34.4483 40.6032 34.3749C40.4164 35.4558 40.4598 36.2532 40.6866 36.7102C40.7355 36.8173 40.802 36.9154 40.8834 37.0005C40.9342 37.0534 40.9927 37.0984 41.0569 37.1339C40.85 37.5509 40.9835 38.2248 41.3304 38.9388C41.4004 39.0856 41.4805 39.2323 41.5672 39.3825C41.654 39.5326 41.7373 39.656 41.8307 39.7928C41.5231 40.4092 41.1325 40.9805 40.6699 41.4909C40.1987 42.0054 39.5952 42.3805 38.9253 42.5752L34.6355 43.3158C33.3012 43.1924 33.1845 42.2049 33.3012 41.0572C33.3246 40.7837 33.3646 40.4968 33.4013 40.2098C33.438 39.9229 33.4814 39.596 33.5081 39.3057C33.5088 39.2888 33.5052 39.2719 33.4976 39.2568C33.49 39.2416 33.4787 39.2286 33.4647 39.219C33.4438 39.2065 33.4189 39.2027 33.3952 39.2083C33.3715 39.2139 33.351 39.2285 33.3379 39.249C33.2245 39.4292 33.1044 39.5159 32.9743 39.5059H32.951C32.4606 39.5993 32.1437 39.1723 31.6901 39.209C31.5199 39.209 31.2898 39.6861 31.083 39.6927L31.2231 39.0522C30.8895 39.0522 30.0189 39.666 29.692 39.7194C29.5518 39.7428 30.626 38.4917 30.5359 38.4717C30.4458 38.4517 29.2016 39.5726 29.1349 39.5693C28.908 39.5693 28.9814 39.5426 28.8013 39.5026C28.8013 39.5026 28.9214 39.3191 28.8013 39.2057C28.6812 39.0922 28.3376 39.3625 28.1342 39.3758L28.0641 39.3458H28.0408H28.0174C28.0001 39.3018 28.0001 39.2529 28.0174 39.209C28.0674 39.0188 28.6846 38.6152 28.351 38.6886C28.2609 38.7086 28.1275 38.782 28.0508 38.7886C27.7872 38.8187 27.4503 39.1223 27.1868 39.1223C26.9148 39.0729 26.6463 39.006 26.3829 38.9221C26.4129 38.872 26.4363 38.812 26.4896 38.8087C26.6073 38.7418 26.7123 38.6549 26.7999 38.5518C27.1334 38.1581 26.5263 38.485 26.2728 38.485C25.9697 38.4598 25.6813 38.3435 25.4455 38.1514C25.4088 38.0981 25.3755 38.0013 25.3321 37.9246C25.3366 37.9065 25.3422 37.8886 25.3488 37.8712C25.9935 37.5089 26.6622 37.1912 27.3503 36.9204C27.6138 36.817 29.6152 36.3299 29.6519 36.2531C29.6562 36.242 29.6582 36.2301 29.6578 36.2181C29.6574 36.2062 29.6547 36.1945 29.6497 36.1836C29.6447 36.1727 29.6376 36.163 29.6289 36.1548C29.6201 36.1467 29.6098 36.1405 29.5986 36.1364C29.304 36.0228 29.0033 35.9259 28.6979 35.8461V35.8461C28.6946 35.8219 28.6819 35.8 28.6625 35.785C28.6432 35.77 28.6188 35.7632 28.5945 35.7661L28.4511 35.7861C28.1709 35.716 27.8806 35.6493 27.5838 35.5826C25.8358 35.1856 23.771 34.6251 22.4334 33.384C22.3322 33.2994 22.2493 33.1949 22.1898 33.0771C22.1898 33.0337 22.1898 33.0037 22.2165 32.987C22.4203 32.9398 22.6327 32.9455 22.8336 33.0037C22.8548 33.0083 22.8769 33.0051 22.8959 32.9946C22.9149 32.9842 22.9295 32.9673 22.9371 32.947C22.9446 32.924 22.9429 32.8989 22.9323 32.8772C22.9217 32.8554 22.9031 32.8386 22.8803 32.8302C21.7829 32.4399 21.5194 32.113 22.0964 31.8494C22.1099 31.8441 22.1219 31.8356 22.1312 31.8245C22.1405 31.8134 22.1469 31.8002 22.1498 31.786C22.1528 31.7744 22.1534 31.7623 22.1517 31.7505C22.1499 31.7386 22.1458 31.7272 22.1396 31.7169C22.1334 31.7067 22.1252 31.6978 22.1155 31.6907C22.1058 31.6837 22.0948 31.6787 22.0831 31.6759C20.7933 31.3757 20.5175 30.9976 21.2558 30.5416L21.2859 30.5149C21.2926 30.5049 21.2973 30.4937 21.2997 30.4818C21.302 30.4699 21.3019 30.4577 21.2994 30.4459C21.2969 30.4341 21.2921 30.4229 21.2852 30.4129C21.2782 30.403 21.2694 30.3946 21.2592 30.3882C21.1403 30.322 21.0413 30.2252 20.9723 30.1079C20.9556 30.071 20.9512 30.0298 20.9596 29.9902C20.968 29.9506 20.9888 29.9147 21.019 29.8877C21.0334 29.8723 21.0417 29.8521 21.0424 29.831C21.0437 29.8194 21.0427 29.8075 21.0394 29.7963C21.0361 29.785 21.0305 29.7745 21.023 29.7655C21.0156 29.7565 21.0063 29.749 20.9959 29.7437C20.9854 29.7383 20.974 29.7351 20.9623 29.7343C18.6105 29.4869 16.3219 28.8214 14.2041 27.7693L14.2141 27.7226ZM34.5722 16.6732C34.0318 14.1277 33.6081 11.8024 33.7616 9.33361C33.915 6.86484 34.6389 4.28598 36.4068 1.22004C36.5833 0.953669 36.7067 0.65576 36.7704 0.342633C36.7704 0.245884 36.6136 0.259228 36.21 0.476079C35.6505 0.761571 35.1303 1.11816 34.6622 1.53698C34.2195 1.94299 33.8415 2.4144 33.5414 2.93484L33.2812 3.38855L33.3546 2.87478C33.4155 2.64309 33.4314 2.40185 33.4013 2.16418C33.3813 2.10413 33.2946 2.14083 33.0877 2.33433L30.726 5.63046L29.6186 7.03499C28.8041 8.17289 28.2361 9.46824 27.9507 10.8382C27.6787 12.2045 27.6258 13.6055 27.7939 14.9884L27.854 15.5389L27.6204 15.0385C27.2068 14.1444 26.8766 13.5639 26.6831 13.4705C26.5597 13.4137 26.5197 13.8041 26.5997 14.7582C26.709 15.8746 26.9612 16.9723 27.3503 18.0243C27.487 18.4514 27.6205 18.8817 27.7439 19.3221L27.7772 19.4355H27.6605C27.6104 19.4355 27.5904 19.4722 27.5904 19.5289C27.5904 19.8125 27.954 20.4364 28.3009 21.0469C28.5275 21.4242 28.7302 21.8153 28.908 22.2179L28.9881 22.4181L28.7913 22.338C28.2976 22.1345 28.0908 22.1145 28.0541 22.2012C27.9874 22.3647 28.2776 22.8351 28.5645 23.3055C28.7771 23.6172 28.9518 23.9532 29.0848 24.3063L28.9948 24.3297H28.9381C29.0048 24.3825 29.0673 24.4405 29.1249 24.5032C31.3698 28.9736 33.428 32.4432 35.1292 34.1781C35.0425 34.0346 34.9091 33.761 34.7957 33.5108C34.7089 33.3307 34.6322 33.1772 34.6055 33.1238C34.1871 32.3262 33.8903 31.4704 33.7249 30.585C33.5971 29.9896 33.4266 29.4043 33.2145 28.8335V28.8335C33.188 28.6925 33.1922 28.5474 33.2267 28.4081C33.2613 28.2688 33.3254 28.1385 33.4146 28.0262C33.4413 27.9861 33.4614 27.9494 33.4747 27.9261C33.3246 27.876 33.1878 27.6392 33.1011 27.4557C33.0811 27.419 33.0644 27.3823 33.0511 27.3523C33.0377 27.3222 33.031 27.2955 33.021 27.2755C32.9943 27.2055 33.041 27.1621 33.1078 27.1054C33.1539 27.0725 33.1926 27.0302 33.2214 26.9814C33.2501 26.9325 33.2682 26.8781 33.2745 26.8218C33.2733 26.5585 33.2397 26.2963 33.1745 26.0411C33.141 25.9295 33.1219 25.814 33.1178 25.6975V25.6975H33.1811H33.2445C33.2514 25.8102 33.2693 25.9219 33.2979 26.0311C33.3629 26.2988 33.3976 26.573 33.4013 26.8485C33.394 26.9218 33.3711 26.9927 33.3343 27.0566C33.2975 27.1204 33.2476 27.1757 33.1878 27.2188C33.1611 27.2422 33.1344 27.2355 33.1378 27.2455L33.1678 27.3156L33.2112 27.4156C33.2946 27.5891 33.4247 27.8193 33.5247 27.8193C33.6248 27.8193 33.6148 27.8493 33.6148 27.9061C33.5989 27.9789 33.567 28.0472 33.5214 28.1062C33.4113 28.2897 33.2412 28.5733 33.3279 28.8002C33.5814 29.332 33.7954 29.8817 33.9684 30.4449C34.302 31.8461 34.5588 33.1672 35.5462 34.3415C36.0199 34.9053 36.3635 35.3958 37.2141 35.4291C37.107 35.3386 37.0137 35.233 36.9372 35.1155C36.7924 34.8852 36.6801 34.636 36.6036 34.3749C36.1066 32.8636 36.1199 29.9778 37.6744 25.9511C37.8572 25.641 37.9593 25.29 37.9713 24.9302C37.9876 24.4957 37.9427 24.0611 37.8379 23.6391C37.6244 22.695 37.0906 21.7508 36.4835 20.6732C35.7201 19.4062 35.0875 18.0649 34.5955 16.6698V16.6698L34.5722 16.6732Z" fill="white"/>
<path fill-rule="evenodd" clip-rule="evenodd" d="M77.2013 13.3465H82.8533V14.2776H81.6794V20.2085H81.834C82.492 18.8307 82.945 17.8501 83.193 17.2669C83.6517 16.2677 84.017 15.5208 84.2871 15.0177C84.5794 14.4929 84.9632 14.0251 85.4202 13.6364C85.8937 13.2187 86.5057 12.9937 87.136 13.0055C87.7762 12.9969 88.4098 13.1364 88.9877 13.413C88.9425 13.6233 88.8795 13.8293 88.7991 14.0286C88.6884 14.2823 88.597 14.5439 88.5256 14.8114C88.4734 15.1501 88.4427 15.4919 88.4339 15.8345C88.4339 15.9368 88.4186 16.0494 88.4118 16.1756C88.405 16.3018 88.3982 16.4177 88.388 16.5166H87.965C87.7338 16.4309 87.507 16.3336 87.2855 16.225C86.9344 16.0494 86.548 15.9566 86.1558 15.9539C85.7802 15.961 85.4192 16.1012 85.1365 16.3495C84.8103 16.6138 84.457 17.0777 84.0679 17.7461C83.5525 18.661 83.0902 19.605 82.6834 20.5735C83.6218 20.7272 84.5297 21.0306 85.3726 21.4721C86.2787 21.9326 87.0675 22.7153 87.7391 23.8203C88.4107 24.9253 88.7504 26.3935 88.7584 28.225H90.058V29.1765H84V28.225H84.9989C84.9989 26.5425 84.8398 25.1873 84.5215 24.1596C84.2021 23.1365 83.7944 22.3896 83.2967 21.9428C82.8547 21.514 82.2859 21.2411 81.676 21.1652V28.2318H82.7632V29.1833H77.2862V28.2318H78.3735V21.1584C77.7601 21.2326 77.1875 21.5056 76.7426 21.936C76.2449 22.3896 75.8405 23.1296 75.5212 24.163C75.2018 25.1964 75.0438 26.5504 75.0438 28.225H76.058V29.1765H70V28.225H71.3013C71.3013 25.5898 71.935 23.714 73.2023 22.5976C74.3698 21.528 75.8227 20.8234 77.3831 20.57C76.9745 19.6002 76.5122 18.654 75.9985 17.7359C75.6078 17.0674 75.2477 16.6002 74.9283 16.3393C74.645 16.0923 74.2841 15.9534 73.909 15.9471C73.5168 15.9503 73.1305 16.043 72.7793 16.2182C72.5777 16.3171 72.3512 16.4143 72.0997 16.5098H71.658C71.658 16.4109 71.6445 16.2984 71.6377 16.1688C71.6309 16.0392 71.6241 15.9317 71.6156 15.8277C71.6075 15.4751 71.5746 15.1235 71.517 14.7756C71.4504 14.5179 71.3624 14.2663 71.2537 14.0235C71.1737 13.8234 71.1084 13.6176 71.0584 13.4079C71.6387 13.1312 72.2745 12.9918 72.9169 13.0004C73.548 12.9897 74.1606 13.2145 74.6361 13.6313C75.0931 14.02 75.4769 14.4878 75.7692 15.0126C76.0393 15.5156 76.4046 16.2625 76.8632 17.2618C77.0807 17.7649 77.5343 18.742 78.2223 20.2034H78.3684V14.2776H77.1962V13.3465H77.2013ZM99.7548 29.1765H98.6523C98.5996 29.8927 98.564 30.4742 98.5453 30.9159V31.939C98.561 32.7228 98.6468 33.5035 98.8018 34.2718V34.838L96.8193 34.9966C96.8241 33.5423 96.9223 32.0898 97.1132 30.6482C97.1483 30.3185 97.2049 29.8279 97.2831 29.1765H95.343L91.9539 14.2776H91.0807V13.3465H96.8142V14.2776H95.343L98.0033 26.3458C98.9671 21.612 99.7645 18.177 100.395 16.0409C100.547 15.5276 100.734 15.0256 100.956 14.5385C101.15 14.1217 101.434 13.753 101.787 13.4591C102.17 13.1479 102.653 12.9867 103.146 13.0055C103.5 13.0153 103.851 13.0726 104.19 13.176C104.603 13.2937 104.87 13.4489 104.982 13.633C104.943 13.8666 104.878 14.0953 104.79 14.3151C104.685 14.5612 104.617 14.8215 104.588 15.0876C104.543 15.6366 104.525 16.1875 104.535 16.7383H104.213C104.129 16.6923 104.073 16.6616 104.043 16.6479C104.012 16.6343 103.939 16.5951 103.83 16.5303C103.431 16.3069 103.141 16.1892 102.955 16.1892C102.443 16.1892 101.988 16.5036 101.588 17.1322C101.146 17.8584 100.803 18.6407 100.569 19.4582C100.296 20.3791 100.06 21.355 99.8619 22.3862C99.6637 23.4173 99.5062 24.2352 99.3896 24.84C99.0804 26.4021 98.846 27.5241 98.6863 28.2147H99.7548V29.1663V29.1765ZM111.117 23.1296V28.225H112.885V29.1765H106.044V28.225H107.812V19.9391C107.812 18.7591 107.834 17.6108 107.877 16.4945C108.264 15.4477 108.974 14.5519 109.902 13.9366C110.821 13.3182 111.906 12.9931 113.012 13.0038C114.015 12.9791 115.01 13.1832 115.923 13.6006C116.673 13.9443 117.307 14.4997 117.748 15.1993C118.189 15.8988 118.418 16.712 118.406 17.5398C118.416 18.3101 118.256 19.073 117.937 19.7737C117.655 20.4071 117.208 20.9529 116.645 21.3545C116.105 21.7331 115.461 21.934 114.803 21.9291C114.521 21.94 114.239 21.8978 113.972 21.8047C113.77 21.7211 113.463 21.5659 113.051 21.3442C112.832 21.2232 112.676 21.1396 112.583 21.0953L111.117 23.1296ZM111.117 21.7654L112.476 19.9306C112.607 20.0409 112.753 20.1327 112.909 20.2034C113.018 20.2615 113.137 20.2985 113.26 20.3126C113.6 20.3126 113.916 20.1136 114.208 19.7157C114.501 19.3178 114.648 18.5732 114.65 17.4818C114.65 16.3904 114.524 15.531 114.273 14.8966C114.171 14.6075 113.978 14.3595 113.724 14.1903C113.469 14.021 113.166 13.9397 112.861 13.9587C112.632 13.9443 112.403 13.9917 112.198 14.096C111.993 14.2004 111.82 14.3579 111.696 14.5522C111.428 14.9931 111.267 15.4905 111.224 16.0051C111.151 16.7245 111.118 17.4476 111.125 18.1707V21.774L111.117 21.7654ZM125.23 13.9587H123.589V13.0055H130.215V13.9587H128.528L132.459 28.2284H133.93V29.1765H127.532V28.2284H129.153L127.554 22.3623C127.388 23.1764 127.154 23.975 126.854 24.7496C126.549 25.5682 126.163 26.3542 125.703 27.0961C125.305 27.7541 124.8 28.3399 124.208 28.8286C123.733 29.237 123.133 29.4688 122.509 29.4852C122.197 29.4899 121.887 29.432 121.597 29.3149C121.307 29.1977 121.044 29.0237 120.822 28.8031C120.356 28.3483 120.123 27.6691 120.122 26.7653C120.143 25.8585 120.316 24.9617 120.632 24.1119C120.98 23.1093 121.409 22.1365 121.913 21.2027C122.439 20.2239 123.047 19.182 123.735 18.0684C123.778 17.9968 123.992 17.6575 124.376 17.0453C124.662 16.6074 124.91 16.1452 125.117 15.664C125.239 15.3371 125.301 14.9902 125.298 14.6408C125.295 14.4119 125.273 14.1837 125.23 13.9587V13.9587ZM126.929 20.2136L125.969 16.6121C125.221 17.7061 124.54 18.8451 123.931 20.0227C123.56 20.7214 123.224 21.4386 122.925 22.1713C122.657 22.8468 122.485 23.557 122.415 24.2807V24.8724C122.522 25.6074 122.925 25.9774 123.627 25.9774C124.163 25.9774 124.67 25.6404 125.147 24.9662C125.654 24.2307 126.054 23.427 126.336 22.5788C126.616 21.8089 126.818 21.0125 126.938 20.2017L126.929 20.2136ZM136.443 28.2284V21.0492C136.443 19.2485 136.599 17.7734 136.915 16.6155C137.231 15.4577 137.802 14.5692 138.637 13.9434C139.473 13.3176 140.656 13.0072 142.173 13.0072C142.808 12.9986 143.44 13.0983 144.041 13.3022C144.557 13.475 145.033 13.7498 145.441 14.1105C145.811 14.4352 146.107 14.8351 146.311 15.2837C146.505 15.7158 146.605 16.1843 146.605 16.6582C146.605 17.7751 146.265 18.5936 145.608 19.1035C144.94 19.618 144.118 19.8898 143.277 19.8743C142.665 19.8743 142.02 19.631 141.34 19.1444L140.403 20.3944C140.85 20.7854 141.338 21.1283 141.857 21.4176C142.312 21.6687 142.798 21.8579 143.302 21.9803C143.828 22.0988 144.366 22.1561 144.904 22.1508H145.096C145.435 22.1339 145.773 22.1921 146.087 22.3214C146.188 22.3679 146.279 22.4358 146.352 22.5206C146.425 22.6053 146.479 22.7049 146.51 22.8125C146.583 23.1171 146.615 23.4303 146.605 23.7435V27.3451C146.605 27.4235 146.605 27.5156 146.595 27.5974C146.585 27.6793 146.585 27.8055 146.585 27.9555C146.588 28.1927 146.558 28.4292 146.496 28.6581C146.458 28.7487 146.401 28.8299 146.329 28.8959C146.256 28.9619 146.17 29.0111 146.077 29.0401C145.711 29.1524 145.329 29.1998 144.947 29.1799H134.667V28.2284H136.443ZM139.745 28.2284H142.365C142.719 28.2284 142.964 28.1329 143.099 27.9419C143.238 27.7492 143.306 27.3417 143.306 26.7141V24.1562C143.323 23.8998 143.273 23.6433 143.16 23.4127C143.063 23.2575 142.805 23.0614 142.385 22.8159C141.64 22.3805 141.098 22.0434 140.761 21.8047C140.382 21.5224 140.039 21.1935 139.742 20.8258V28.2284H139.745ZM139.745 20.0295L140.978 18.2407C141.415 18.4981 141.746 18.626 141.962 18.626C142.264 18.626 142.564 18.4487 142.861 18.094C143.156 17.7359 143.306 17.1391 143.306 16.2932C143.306 15.4974 143.146 14.9086 142.825 14.5266C142.68 14.3458 142.496 14.2007 142.287 14.1023C142.077 14.0039 141.848 13.9548 141.617 13.9587C140.865 13.9587 140.367 14.3697 140.122 15.1968C139.878 16.0238 139.742 17.122 139.721 18.4913C139.721 18.6925 139.721 18.9415 139.731 19.2399C139.742 19.5384 139.745 19.8027 139.745 20.0278V20.0295ZM157.049 29.1799H155.942C155.889 29.8961 155.853 30.4776 155.835 30.9193V31.9425C155.85 32.7262 155.936 33.5069 156.091 34.2753V34.8414L154.109 35C154.113 33.5457 154.212 32.0932 154.402 30.6516C154.439 30.3219 154.495 29.8313 154.572 29.1799H152.637L149.248 14.2776H148.375V13.3465H154.109V14.2776H152.637L155.298 26.3458C156.26 21.6086 157.058 18.1736 157.69 16.0409C157.841 15.5276 158.029 15.0256 158.25 14.5385C158.445 14.1217 158.728 13.753 159.081 13.4591C159.464 13.1479 159.947 12.9867 160.44 13.0055C160.794 13.0151 161.146 13.0725 161.485 13.176C161.898 13.2937 162.164 13.4489 162.277 13.633C162.237 13.8666 162.173 14.0953 162.085 14.3151C161.98 14.5612 161.911 14.8215 161.882 15.0876C161.837 15.6366 161.82 16.1875 161.83 16.7383H161.509C161.425 16.6923 161.369 16.6616 161.339 16.6479C161.308 16.6343 161.237 16.5951 161.126 16.5303C160.727 16.3069 160.437 16.1892 160.252 16.1892C159.741 16.1892 159.288 16.5036 158.892 17.1322C158.451 17.8584 158.108 18.6407 157.873 19.4582C157.6 20.3791 157.365 21.355 157.166 22.3862C156.968 23.4173 156.811 24.2352 156.694 24.84C156.385 26.4021 156.151 27.5241 155.991 28.2147H157.059V29.1663L157.049 29.1799ZM168.346 28.2284H172.653V14.2998H171.178V13.3465H177.423V14.2998H175.949V28.2284H180.255V14.2998H178.781V13.3465H185.328V14.2998H183.566V28.2284H185.335V29.1799H163.274V28.2284H165.042V14.2998H163.274V13.3465H169.821V14.2998H168.346V28.2284V28.2284ZM192.006 20.3177H192.791L193.09 19.6867C193.22 19.4213 193.333 19.1479 193.429 18.8682C193.543 18.626 193.625 18.4487 193.677 18.3361C193.73 18.2236 193.798 18.0787 193.88 17.8979C194.127 17.3659 194.396 16.7906 194.687 16.1722C194.951 15.605 195.26 15.0598 195.611 14.5419C195.902 14.1015 196.276 13.7222 196.712 13.425C197.128 13.1441 197.62 12.9977 198.122 13.0055C198.77 13.0021 199.411 13.1412 200 13.413C199.735 14.1463 199.589 14.5726 199.557 14.6903C199.508 14.9355 199.477 15.184 199.465 15.4338C199.424 15.7921 199.402 16.1525 199.401 16.5132H198.974C198.723 16.4177 198.495 16.3205 198.295 16.2216C197.938 16.0389 197.543 15.9459 197.143 15.9505C196.73 15.9487 196.333 16.1112 196.039 16.4024C195.65 16.7959 195.325 17.2482 195.076 17.7427C194.753 18.3361 194.283 19.2797 193.666 20.5735C194.71 20.8105 195.714 21.2013 196.645 21.733C197.491 22.231 198.191 23.0035 198.745 24.0505C199.299 25.0975 199.589 26.489 199.615 28.225H200.897V29.1765H195.101V28.225H195.928C195.952 27.6503 195.968 27.2427 195.968 27.0023C195.977 26.259 195.913 25.5165 195.779 24.7855C195.666 24.1869 195.449 23.6131 195.137 23.0904C194.826 22.5878 194.404 22.1641 193.903 21.8524C193.32 21.4947 192.677 21.2468 192.006 21.1208V28.2318H193.328V29.1833H186.933V28.2318H188.702V14.2776H186.933V13.3465H193.474V14.2776H192.006V20.3177ZM207.311 13.9587H205.678V13.0055H212.303V13.9587H210.605L214.529 28.2301H216V29.1782H209.612V28.2301H211.233L209.633 22.364C209.468 23.1783 209.235 23.977 208.935 24.7514C208.628 25.5696 208.243 26.3556 207.783 27.0978C207.385 27.7558 206.88 28.3416 206.288 28.8304C205.814 29.2387 205.214 29.4705 204.589 29.4869C204.277 29.4916 203.967 29.4337 203.677 29.3166C203.387 29.1994 203.124 29.0254 202.902 28.8048C202.437 28.35 202.203 27.6708 202.202 26.767C202.221 25.8609 202.39 24.9642 202.702 24.1136C203.051 23.1155 203.478 22.1468 203.979 21.2163C204.506 20.2375 205.112 19.1956 205.802 18.0821C205.844 18.0104 206.058 17.6711 206.442 17.0589C206.734 16.6172 206.987 16.1504 207.197 15.664C207.319 15.337 207.38 14.9901 207.377 14.6408C207.374 14.4119 207.351 14.1837 207.309 13.9587H207.311ZM209.009 20.2136L208.056 16.6104C207.308 17.7044 206.627 18.8434 206.018 20.021C205.647 20.7197 205.311 21.4369 205.012 22.1696C204.744 22.8451 204.572 23.5553 204.502 24.279V24.8724C204.609 25.6074 205.012 25.9774 205.714 25.9774C206.25 25.9774 206.757 25.6404 207.234 24.9662C207.741 24.2307 208.141 23.427 208.423 22.5788C208.7 21.8119 208.898 21.0189 209.016 20.2119L209.009 20.2136Z" fill="white"/>
<path d="M103.408 48.652C103.152 48.836 102.824 48.968 102.424 49.048C102.032 49.128 101.628 49.168 101.212 49.168C100.708 49.168 100.228 49.092 99.772 48.94C99.324 48.78 98.928 48.528 98.584 48.184C98.24 47.832 97.964 47.38 97.756 46.828C97.556 46.268 97.456 45.592 97.456 44.8C97.456 43.976 97.568 43.288 97.792 42.736C98.024 42.176 98.32 41.728 98.68 41.392C99.048 41.048 99.456 40.804 99.904 40.66C100.352 40.508 100.8 40.432 101.248 40.432C101.728 40.432 102.132 40.464 102.46 40.528C102.796 40.592 103.072 40.668 103.288 40.756L102.964 42.148C102.78 42.06 102.56 41.996 102.304 41.956C102.056 41.916 101.752 41.896 101.392 41.896C100.728 41.896 100.192 42.132 99.784 42.604C99.384 43.076 99.184 43.808 99.184 44.8C99.184 45.232 99.232 45.628 99.328 45.988C99.424 46.34 99.568 46.644 99.76 46.9C99.96 47.148 100.204 47.344 100.492 47.488C100.788 47.624 101.128 47.692 101.512 47.692C101.872 47.692 102.176 47.656 102.424 47.584C102.672 47.512 102.888 47.42 103.072 47.308L103.408 48.652ZM109.052 44.38H107.36V49H105.752V44.38H104.06V43H109.052V44.38ZM110.947 43H112.087L112.267 43.72H112.315C112.523 43.416 112.767 43.192 113.047 43.048C113.335 42.904 113.683 42.832 114.091 42.832C114.843 42.832 115.407 43.072 115.783 43.552C116.159 44.024 116.347 44.788 116.347 45.844C116.347 46.356 116.287 46.82 116.167 47.236C116.047 47.644 115.867 47.992 115.627 48.28C115.395 48.568 115.107 48.788 114.763 48.94C114.427 49.092 114.039 49.168 113.599 49.168C113.351 49.168 113.147 49.148 112.987 49.108C112.827 49.076 112.667 49.02 112.507 48.94V51.4H110.947V43ZM113.623 44.152C113.319 44.152 113.079 44.228 112.903 44.38C112.735 44.532 112.603 44.76 112.507 45.064V47.56C112.619 47.648 112.739 47.72 112.867 47.776C113.003 47.824 113.179 47.848 113.395 47.848C113.843 47.848 114.179 47.692 114.403 47.38C114.627 47.06 114.739 46.536 114.739 45.808C114.739 45.28 114.651 44.872 114.475 44.584C114.299 44.296 114.015 44.152 113.623 44.152ZM118.34 46C118.34 44.984 118.588 44.204 119.084 43.66C119.58 43.108 120.276 42.832 121.172 42.832C121.652 42.832 122.068 42.908 122.42 43.06C122.772 43.212 123.064 43.428 123.296 43.708C123.528 43.98 123.7 44.312 123.812 44.704C123.932 45.096 123.992 45.528 123.992 46C123.992 47.016 123.744 47.8 123.248 48.352C122.76 48.896 122.068 49.168 121.172 49.168C120.692 49.168 120.276 49.092 119.924 48.94C119.572 48.788 119.276 48.576 119.036 48.304C118.804 48.024 118.628 47.688 118.508 47.296C118.396 46.904 118.34 46.472 118.34 46ZM119.948 46C119.948 46.264 119.972 46.508 120.02 46.732C120.068 46.956 120.14 47.152 120.236 47.32C120.332 47.488 120.456 47.62 120.608 47.716C120.768 47.804 120.956 47.848 121.172 47.848C121.58 47.848 121.884 47.7 122.084 47.404C122.284 47.108 122.384 46.64 122.384 46C122.384 45.448 122.292 45.004 122.108 44.668C121.924 44.324 121.612 44.152 121.172 44.152C120.788 44.152 120.488 44.296 120.272 44.584C120.056 44.872 119.948 45.344 119.948 46ZM129.885 46.264L129.945 45.412H129.909L129.393 46.288L127.257 49H126.273V43H127.833V45.856L127.761 46.672H127.809L128.301 45.82L130.461 43H131.445V49H129.885V46.264ZM139.148 46.252L139.244 45.004H139.184L138.704 46.036L137.576 47.896H137.012L135.776 46.036L135.32 45.004H135.248L135.404 46.24V49H134.012V43H135.632L137.012 45.256L137.348 46.012H137.396L137.744 45.232L139.016 43H140.648V49H139.148V46.252ZM147.439 43.012C147.719 42.988 148.055 42.964 148.447 42.94C148.847 42.916 149.275 42.904 149.731 42.904C150.611 42.904 151.235 43.032 151.603 43.288C151.979 43.536 152.167 43.912 152.167 44.416C152.167 44.696 152.087 44.968 151.927 45.232C151.767 45.496 151.515 45.688 151.171 45.808V45.856C151.603 45.952 151.915 46.124 152.107 46.372C152.299 46.612 152.395 46.924 152.395 47.308C152.395 47.908 152.163 48.356 151.699 48.652C151.243 48.948 150.507 49.096 149.491 49.096C149.155 49.096 148.799 49.084 148.423 49.06C148.047 49.044 147.719 49.02 147.439 48.988V43.012ZM148.963 47.8C149.075 47.816 149.179 47.828 149.275 47.836C149.371 47.844 149.491 47.848 149.635 47.848C150.067 47.848 150.375 47.788 150.559 47.668C150.743 47.548 150.835 47.364 150.835 47.116C150.835 46.908 150.755 46.74 150.595 46.612C150.443 46.476 150.167 46.408 149.767 46.408H148.963V47.8ZM149.791 45.448C150.047 45.448 150.255 45.388 150.415 45.268C150.583 45.14 150.667 44.98 150.667 44.788C150.667 44.58 150.595 44.424 150.451 44.32C150.315 44.208 150.063 44.152 149.695 44.152C149.511 44.152 149.363 44.156 149.251 44.164C149.147 44.172 149.051 44.18 148.963 44.188V45.448H149.791ZM159.834 46.252L159.93 45.004H159.87L159.39 46.036L158.262 47.896H157.698L156.462 46.036L156.006 45.004H155.934L156.09 46.24V49H154.698V43H156.318L157.698 45.256L158.034 46.012H158.082L158.43 45.232L159.702 43H161.334V49H159.834V46.252ZM168.69 48.484C168.45 48.676 168.122 48.84 167.706 48.976C167.298 49.104 166.862 49.168 166.398 49.168C165.43 49.168 164.722 48.888 164.274 48.328C163.826 47.76 163.602 46.984 163.602 46C163.602 44.944 163.854 44.152 164.358 43.624C164.862 43.096 165.57 42.832 166.482 42.832C166.786 42.832 167.082 42.872 167.37 42.952C167.658 43.032 167.914 43.164 168.138 43.348C168.362 43.532 168.542 43.78 168.678 44.092C168.814 44.404 168.882 44.792 168.882 45.256C168.882 45.424 168.87 45.604 168.846 45.796C168.83 45.988 168.802 46.188 168.762 46.396H165.162C165.186 46.9 165.314 47.28 165.546 47.536C165.786 47.792 166.17 47.92 166.698 47.92C167.026 47.92 167.318 47.872 167.574 47.776C167.838 47.672 168.038 47.568 168.174 47.464L168.69 48.484ZM166.458 44.08C166.05 44.08 165.746 44.204 165.546 44.452C165.354 44.692 165.238 45.016 165.198 45.424H167.43C167.462 44.992 167.394 44.66 167.226 44.428C167.066 44.196 166.81 44.08 166.458 44.08ZM175.373 48.628C175.133 48.804 174.841 48.936 174.497 49.024C174.161 49.12 173.813 49.168 173.453 49.168C172.973 49.168 172.565 49.092 172.229 48.94C171.901 48.788 171.633 48.576 171.425 48.304C171.217 48.024 171.065 47.688 170.969 47.296C170.881 46.904 170.837 46.472 170.837 46C170.837 44.984 171.065 44.204 171.521 43.66C171.977 43.108 172.641 42.832 173.513 42.832C173.953 42.832 174.305 42.868 174.569 42.94C174.841 43.012 175.085 43.104 175.301 43.216L174.929 44.488C174.745 44.4 174.561 44.332 174.377 44.284C174.201 44.236 173.997 44.212 173.765 44.212C173.333 44.212 173.005 44.356 172.781 44.644C172.557 44.924 172.445 45.376 172.445 46C172.445 46.256 172.473 46.492 172.529 46.708C172.585 46.924 172.669 47.112 172.781 47.272C172.893 47.432 173.037 47.56 173.213 47.656C173.397 47.744 173.609 47.788 173.849 47.788C174.113 47.788 174.337 47.756 174.521 47.692C174.705 47.62 174.869 47.536 175.013 47.44L175.373 48.628ZM181.778 44.38H180.086V49H178.478V44.38H176.786V43H181.778V44.38ZM188.38 48.484C188.14 48.676 187.812 48.84 187.396 48.976C186.988 49.104 186.552 49.168 186.088 49.168C185.12 49.168 184.412 48.888 183.964 48.328C183.516 47.76 183.292 46.984 183.292 46C183.292 44.944 183.544 44.152 184.048 43.624C184.552 43.096 185.26 42.832 186.172 42.832C186.476 42.832 186.772 42.872 187.06 42.952C187.348 43.032 187.604 43.164 187.828 43.348C188.052 43.532 188.232 43.78 188.368 44.092C188.504 44.404 188.572 44.792 188.572 45.256C188.572 45.424 188.56 45.604 188.536 45.796C188.52 45.988 188.492 46.188 188.452 46.396H184.852C184.876 46.9 185.004 47.28 185.236 47.536C185.476 47.792 185.86 47.92 186.388 47.92C186.716 47.92 187.008 47.872 187.264 47.776C187.528 47.672 187.728 47.568 187.864 47.464L188.38 48.484ZM186.148 44.08C185.74 44.08 185.436 44.204 185.236 44.452C185.044 44.692 184.928 45.016 184.888 45.424H187.12C187.152 44.992 187.084 44.66 186.916 44.428C186.756 44.196 186.5 44.08 186.148 44.08Z" fill="white"/>
</g>
<defs>
<filter id="filter0_d" x="0" y="0.285156" width="220" height="66.0094" filterUnits="userSpaceOnUse" color-interpolation-filters="sRGB">
<feFlood flood-opacity="0" result="BackgroundImageFix"/>
<feColorMatrix in="SourceAlpha" type="matrix" values="0 0 0 0 0 0 0 0 0 0 0 0 0 0 0 0 0 0 127 0"/>
<feOffset dy="4"/>
<feGaussianBlur stdDeviation="2"/>
<feColorMatrix type="matrix" values="0 0 0 0 0 0 0 0 0 0 0 0 0 0 0 0 0 0 0.25 0"/>
<feBlend mode="normal" in2="BackgroundImageFix" result="effect1_dropShadow"/>
<feBlend mode="normal" in="SourceGraphic" in2="effect1_dropShadow" result="shape"/>
</filter>
</defs>
</svg>
