<svg width="24" height="24" viewBox="0 0 24 24" fill="none" xmlns="http://www.w3.org/2000/svg">
<path d="M0.400086 24.0463H19.6C19.821 24.0463 20.0001 23.8672 20.0001 23.6464V20.0464H22.8C23.021 20.0464 23.2001 19.8673 23.2001 19.6465V15.6463C23.2001 15.4255 23.021 15.2464 22.8 15.2464H20.0001V11.6464C20.0001 11.4254 19.821 11.2463 19.6 11.2463H18.8659C18.9223 10.9848 18.8627 10.7116 18.7024 10.4974L16.895 8.08807L17.7296 7.46203C18.1004 7.18444 18.3075 6.7395 18.2813 6.27697L18.2412 5.55663C18.2302 5.36126 18.3177 5.17339 18.4743 5.05602L19.3087 4.43016L19.6599 4.89818C19.7234 4.98296 19.8181 5.03917 19.9232 5.05419C19.9419 5.05675 19.9607 5.05822 19.9798 5.05803C20.0664 5.05822 20.1506 5.03002 20.2198 4.97801L23.5201 2.50224C24.05 2.10471 24.1575 1.3527 23.76 0.822605L23.5377 0.525973C23.1396 -0.00338703 22.388 -0.110504 21.8577 0.28647L18.5578 2.76206C18.3811 2.89463 18.3452 3.14549 18.4778 3.32219L18.8288 3.79021L17.9944 4.41624C17.6236 4.69383 17.4163 5.1386 17.4427 5.60112L17.4826 6.32146C17.4938 6.51684 17.4062 6.70489 17.2497 6.82208L16.4153 7.44812L14.6076 5.03881C14.4185 4.78264 14.1112 4.64147 13.7935 4.66472C13.4905 4.68669 13.2197 4.86247 13.076 5.13036L9.78921 11.2463H0.400086C0.179078 11.2463 0 11.4254 0 11.6464V15.6463C0 15.8673 0.179078 16.0464 0.400086 16.0464H3.19996V19.2464H0.400086C0.179078 19.2464 0 19.4255 0 19.6465V23.6464C0 23.8672 0.179078 24.0463 0.400086 24.0463ZM22.3378 0.926243C22.5143 0.793674 22.765 0.829379 22.8978 1.00608L23.12 1.30271C23.2524 1.47941 23.2165 1.7299 23.04 1.86246L20.0596 4.09837L19.3574 3.16197L22.3378 0.926243ZM7.20009 20.0464H12.8V23.2463H7.20009V20.0464ZM10.4 16.0464H16V19.2464H10.4V16.0464ZM19.2001 23.2463H13.6V20.0464H19.2001V23.2463ZM22.4001 19.2464H16.8V16.0464H22.4001V19.2464ZM19.2001 15.2464H13.6V12.9171L17.6943 12.0463H19.2001V15.2464ZM13.7809 5.50939C13.7945 5.48137 13.8227 5.46343 13.8538 5.46251L13.8617 5.46215C13.9041 5.46288 13.9435 5.48394 13.9677 5.51873L15.7749 7.92804L14.1248 9.16602C13.9481 9.29859 13.9122 9.54926 14.0448 9.72614C14.1773 9.90284 14.428 9.93854 14.6049 9.80616L16.255 8.56818L18.0625 10.9775C18.0912 11.0126 18.0997 11.0601 18.0845 11.1027C18.0749 11.1324 18.0498 11.1542 18.0191 11.1597L10.0835 12.8472C10.0342 12.8549 9.98476 12.8338 9.95638 12.7928C9.92452 12.7543 9.91811 12.7009 9.9399 12.6558L13.7809 5.50939ZM9.31661 13.2729C9.52975 13.5661 9.89559 13.7058 10.2499 13.6296L12.8 13.0872V15.2464H7.20009V12.0463H9.35909L9.23513 12.277C9.06374 12.5961 9.09579 12.986 9.31661 13.2729ZM0.79999 13.6464H1.59998C1.82099 13.6464 2.00007 13.4674 2.00007 13.2464C2.00007 13.0255 1.82099 12.8465 1.59998 12.8465H0.79999V12.0463H6.4001V15.2464H0.79999V13.6464ZM3.99995 16.0464H9.60006V19.2464H3.99995V16.0464ZM0.79999 20.0464H6.4001V23.2463H0.79999V20.0464Z" fill="white"/>
</svg>
